<?xml version="1.0" encoding="utf-8"?>

<!DOCTYPE svg PUBLIC "-//W3C//DTD SVG 1.1//EN" "http://www.w3.org/Graphics/SVG/1.1/DTD/svg11.dtd">
<svg version="1.1" id="Layer_1" xmlns="http://www.w3.org/2000/svg" xmlns:xlink="http://www.w3.org/1999/xlink" x="0px" y="0px"
	 viewBox="0 0 2560 1600" enable-background="new 0 0 2560 1600" xml:space="preserve">
<pattern  width="227.545" height="394.119" patternUnits="userSpaceOnUse" id="New_Pattern" viewBox="113.772 -492.649 227.545 394.119" overflow="visible">
	<g>
		<rect x="113.772" y="-492.649" fill="none" width="227.545" height="394.119"/>
		<path d="M455.09,0c-39.205-29.95-68.048-47.804-88.947-57.748c0.555-6.573-4.7-13.018-21.106-10.086
			c10.742-12.742,7.788-20.515,1.818-23.321c1.838-23.071,0.797-56.977-5.538-105.905c-6.335,48.928-7.376,82.833-5.538,105.905
			c-5.97,2.806-8.924,10.579,1.819,23.321c-16.406-2.932-21.661,3.513-21.106,10.086C295.593-47.804,266.75-29.95,227.545,0
			c45.54-18.978,75.424-35.029,94.485-48.157c5.415,3.767,13.623,2.439,19.287-13.235c5.664,15.674,13.872,17.002,19.287,13.235
			C379.666-35.029,409.549-18.978,455.09,0z"/>
		<path d="M227.545,0c-39.205-29.95-68.048-47.804-88.947-57.748c0.555-6.573-4.7-13.018-21.106-10.086
			c10.742-12.742,7.788-20.515,1.818-23.321c1.838-23.071,0.797-56.977-5.538-105.905c-6.335,48.928-7.376,82.833-5.538,105.905
			c-5.97,2.806-8.924,10.579,1.819,23.321c-16.406-2.932-21.661,3.513-21.106,10.086C68.048-47.804,39.205-29.95,0,0
			c45.54-18.978,75.424-35.029,94.485-48.157c5.415,3.767,13.623,2.439,19.287-13.235c5.664,15.674,13.872,17.002,19.287,13.235
			C152.121-35.029,182.004-18.978,227.545,0z"/>
		<path d="M341.317-197.06c-39.205-29.95-68.048-47.804-88.947-57.748c0.555-6.573-4.7-13.018-21.106-10.086
			c10.742-12.742,7.788-20.515,1.818-23.321c1.838-23.071,0.797-56.977-5.538-105.905c-6.335,48.928-7.376,82.833-5.538,105.905
			c-5.97,2.806-8.924,10.579,1.819,23.321c-16.406-2.932-21.661,3.513-21.106,10.086c-20.899,9.944-49.742,27.798-88.947,57.748
			c45.54-18.978,75.424-35.029,94.485-48.157c5.415,3.767,13.623,2.439,19.287-13.235c5.664,15.674,13.872,17.002,19.287,13.235
			C265.893-232.089,295.777-216.037,341.317-197.06z"/>
		<path d="M455.09-394.119c-39.205-29.95-68.048-47.804-88.947-57.748c0.555-6.573-4.7-13.018-21.106-10.086
			c10.742-12.742,7.788-20.515,1.818-23.321c1.838-23.071,0.797-56.977-5.538-105.905c-6.335,48.928-7.376,82.833-5.538,105.905
			c-5.97,2.806-8.924,10.579,1.819,23.321c-16.406-2.932-21.661,3.513-21.106,10.086c-20.899,9.944-49.742,27.798-88.947,57.748
			c45.54-18.978,75.424-35.029,94.485-48.157c5.415,3.767,13.623,2.439,19.287-13.235c5.664,15.674,13.872,17.002,19.287,13.235
			C379.666-429.148,409.549-413.097,455.09-394.119z"/>
		<path d="M227.545-394.119c-39.205-29.95-68.048-47.804-88.947-57.748c0.555-6.573-4.7-13.018-21.106-10.086
			c10.742-12.742,7.788-20.515,1.818-23.321c1.838-23.071,0.797-56.977-5.538-105.905c-6.335,48.928-7.376,82.833-5.538,105.905
			c-5.97,2.806-8.924,10.579,1.819,23.321c-16.406-2.932-21.661,3.513-21.106,10.086C68.048-441.924,39.205-424.07,0-394.119
			c45.54-18.978,75.424-35.029,94.485-48.157c5.415,3.767,13.623,2.439,19.287-13.235c5.664,15.674,13.872,17.002,19.287,13.235
			C152.121-429.148,182.004-413.097,227.545-394.119z"/>
	</g>
</pattern>
<rect fill="url(#New_Pattern)" width="2560" height="1600"/>
</svg>
