<?xml version="1.0" encoding="UTF-8" standalone="no"?>
<!-- Created with Inkscape (http://www.inkscape.org/) -->

<svg
   xmlns:dc="http://purl.org/dc/elements/1.1/"
   xmlns:cc="http://creativecommons.org/ns#"
   xmlns:rdf="http://www.w3.org/1999/02/22-rdf-syntax-ns#"
   xmlns:svg="http://www.w3.org/2000/svg"
   xmlns="http://www.w3.org/2000/svg"
   xmlns:sodipodi="http://sodipodi.sourceforge.net/DTD/sodipodi-0.dtd"
   xmlns:inkscape="http://www.inkscape.org/namespaces/inkscape"
   id="svg2"
   version="1.1"
   inkscape:version="0.91 r13725"
   width="600"
   height="600"
   viewBox="0 0 600 600"
   sodipodi:docname="seamless pattern 02.svg">
  <metadata
     id="metadata8">
    <rdf:RDF>
      <cc:Work
         rdf:about="">
        <dc:format>image/svg+xml</dc:format>
        <dc:type
           rdf:resource="http://purl.org/dc/dcmitype/StillImage" />
        <dc:title></dc:title>
      </cc:Work>
    </rdf:RDF>
  </metadata>
  <defs
     id="defs6" />
  <sodipodi:namedview
     pagecolor="#ffffff"
     bordercolor="#666666"
     borderopacity="1"
     objecttolerance="10"
     gridtolerance="10"
     guidetolerance="10"
     inkscape:pageopacity="0"
     inkscape:pageshadow="2"
     inkscape:window-width="1325"
     inkscape:window-height="872"
     id="namedview4"
     showgrid="false"
     inkscape:zoom="0.8180949"
     inkscape:cx="277.46563"
     inkscape:cy="262.45159"
     inkscape:window-x="713"
     inkscape:window-y="3"
     inkscape:window-maximized="0"
     inkscape:current-layer="svg2" />
  <g
     id="g83700">
    <g
       style="fill:#000000;fill-opacity:1"
       id="g83686">
      <path
         inkscape:connector-curvature="0"
         id="path83688"
         d="M 0,599.43364 C 0,598.61197 11.636288,587 12.45968,587 c 0.735382,0 11.788989,10.63778 12.59896,12.125 0.364139,0.66861 0.286355,0.875 -0.329773,0.875 -0.443475,0 -3.376391,-2.51137 -6.517592,-5.58082 L 12.5,588.83835 6.788725,594.41918 C 1.3668788,599.71718 0,600.72682 0,599.43364 Z M 36.667539,587.89763 C 29.975393,581.24132 24.5,575.4442 24.5,575.01512 24.5,574.01573 36.516708,562 37.516183,562 38.245021,562 75.5,598.91823 75.5,599.64048 c 0,1.62682 -4.078015,-2.02063 -19.8524,-17.75631 l -18.160387,-18.11583 -5.610435,5.61044 -5.610434,5.61043 12.116828,12.15383 C 45.047427,593.82764 50.5,599.45506 50.5,599.64843 c 0,1.52894 -3.297827,-1.27259 -13.832461,-11.7508 z M 100,599.69671 c 0,-0.47395 6.93188,-7.52224 10.13918,-10.30946 l 2.88918,-2.51077 5.77687,5.68677 c 6.19479,6.09816 7.26167,7.43675 5.9272,7.43675 -0.44152,0 -3.2254,-2.3625 -6.1864,-5.25 -2.961,-2.8875 -5.56921,-5.25 -5.79603,-5.25 -0.22682,0 -2.83503,2.3625 -5.79604,5.25 -4.6154,4.50084 -6.95396,6.16438 -6.95396,4.94671 z m 36.91838,-11.54865 C 130.36327,581.6295 125,575.97731 125,575.58766 125,574.72188 136.88214,562 137.69077,562 c 0.61337,0 37.80923,37.02985 37.80923,37.64048 0,1.62582 -4.06323,-2.00588 -19.73385,-17.63805 l -18.04183,-17.99757 -4.25222,4.37257 c -2.33873,2.40492 -4.79616,4.9969 -5.46097,5.75997 l -1.20875,1.38741 11.84881,11.8865 c 6.51684,6.53757 11.84881,12.04449 11.84881,12.23759 0,1.52314 -3.26436,-1.24109 -13.58162,-11.50083 z M 199.94136,599.125 C 200.59515,597.92455 211.73511,587 212.30544,587 c 0.25244,0 3.3775,2.925 6.94456,6.5 7.96607,7.98379 7.26686,8.96553 -0.89027,1.25 -3.05277,-2.8875 -5.76911,-5.25 -6.03631,-5.25 -0.26719,0 -2.90845,2.3625 -5.86946,5.25 -2.961,2.8875 -5.74488,5.25 -6.18639,5.25 -0.61274,0 -0.68995,-0.20712 -0.32621,-0.875 z m 36.87083,-11 c -6.6342,-6.53125 -12.25715,-12.18311 -12.49543,-12.55967 -0.31418,-0.49652 1.33275,-2.45461 5.99278,-7.125 3.53432,-3.54219 6.67209,-6.44033 6.97283,-6.44033 0.65449,0 37.02444,35.70477 37.74898,37.05859 0.40299,0.75298 0.33098,0.94141 -0.35977,0.94141 -0.47497,0 -9.02771,-8.14409 -19.00608,-18.09797 l -18.14248,-18.09797 -1.38651,1.20814 c -4.21931,3.67652 -9.63651,9.32718 -9.63651,10.0518 0,0.45984 5.19432,5.85946 11.54294,11.99915 C 249.84093,598.47287 251.21755,600 249.70478,600 c -0.45671,0 -6.25838,-5.34375 -12.89259,-11.875 z M 81.061415,581.77471 C 77.45264,578.21329 74.5,575.04314 74.5,574.72994 74.5,574.41673 85.4125,563.06326 98.75,549.5 112.0875,535.93674 123,524.58087 123,524.26472 123,523.57444 112.85406,513.5 112.15889,513.5 c -0.26735,0 -11.34552,11.025 -24.61817,24.5 -13.27265,13.475 -24.365475,24.5 -24.65072,24.5 -0.28525,0 -5.50034,-4.78125 -11.5891,-10.625 -6.088757,-5.84375 -11.691493,-11.17674 -12.450524,-11.8511 L 37.47032,538.79781 19.094473,557.1489 C 8.987758,567.24201 0.5569362,575.5 0.35931367,575.5 c -1.62915387,0 2.05245053,-4.11031 18.00033733,-20.09639 10.097809,-10.12199 18.704059,-18.3956 19.125,-18.3858 0.420942,0.01 6.270764,5.28096 12.999604,11.7137 7.276,6.95582 12.46864,11.55862 12.81258,11.35719 0.31808,-0.18628 11.19501,-11.1387 24.17096,-24.3387 12.975945,-13.2 23.972785,-24.06283 24.437415,-24.13964 0.52394,-0.0866 3.30695,2.33082 7.32769,6.36509 l 6.4829,6.50473 -10.73078,10.88491 c -5.90192,5.9867 -17.02521,17.24386 -24.718405,25.01589 l -13.987625,14.13099 5.485505,5.50523 c 3.01703,3.02787 5.744585,5.44393 6.06124,5.36901 C 88.14239,585.31129 99.13114,574.3375 112.24518,561 c 13.11403,-13.3375 24.18581,-24.32749 24.60395,-24.4222 0.45669,-0.10343 5.70857,4.76165 13.15291,12.18422 6.81596,6.79603 12.63617,12.27351 12.93379,12.17219 0.29762,-0.10132 11.27796,-11.09671 24.40076,-24.43421 13.12279,-13.3375 24.17983,-24.44496 24.57119,-24.68324 0.52531,-0.31984 2.39741,1.24885 7.15189,5.99278 3.54218,3.53432 6.44033,6.65684 6.44033,6.93895 0,0.28211 -10.9266,11.60408 -24.28133,25.15993 -13.35472,13.55586 -24.21097,24.92678 -24.125,25.26873 0.086,0.34194 2.59209,2.96187 5.56913,5.82208 l 5.4128,5.20036 7.82865,-7.9748 C 220.6505,553.01657 236.77587,537 237.40908,537 c 0.39672,0 4.19408,3.31875 8.43859,7.375 4.24452,4.05625 9.85417,9.37585 12.46589,11.82133 l 4.74859,4.44632 18.28065,-18.19632 c 10.12488,-10.07819 18.38215,-17.92075 18.50816,-17.57862 0.12513,0.33974 -0.2277,1.257 -0.78408,2.03836 -1.44841,2.0341 -35.51888,35.59393 -36.13553,35.59393 -0.2826,0 -6.03226,-5.29928 -12.77701,-11.77618 -6.74476,-6.4769 -12.57143,-11.70815 -12.94816,-11.625 -0.37672,0.0831 -11.42227,11.06368 -24.54564,24.40118 -13.12338,13.3375 -24.20941,24.31283 -24.63562,24.38963 -0.44146,0.0796 -3.56919,-2.66403 -7.26838,-6.37567 l -6.49346,-6.51532 7.74904,-7.87432 c 4.26197,-4.33087 15.34028,-15.53829 24.61846,-24.90537 9.27818,-9.36709 16.86942,-17.26349 16.86942,-17.54759 0,-0.89437 -10.47444,-10.75055 -11.24578,-10.58199 -0.40431,0.0883 -11.36362,10.96063 -24.35403,24.16063 -12.99041,13.2 -24.04432,24.31124 -24.56425,24.69166 -0.87156,0.63769 -1.93712,-0.29869 -13.65542,-12 L 136.97043,538.25 l -24.67379,25 -24.673805,25 -6.56142,-6.47529 z M 280.55681,581.5604 c -3.33124,-3.54178 -6.05681,-6.6415 -6.05681,-6.88828 0,-0.73939 24.9529,-25.38588 25.32488,-25.01391 0.7746,0.7746 -1.51739,3.35782 -11.68124,13.16553 -5.87147,5.66573 -10.91105,10.74167 -11.19909,11.27986 -0.45591,0.85189 0.19039,1.70057 4.99387,6.5576 l 5.51757,5.57907 5.94334,-5.87013 c 3.26883,-3.22858 6.09124,-5.87014 6.272,-5.87014 0.18077,0 0.32867,0.3564 0.32867,0.79201 C 300,576.37833 288.54517,588 287.47445,588 c -0.47345,0 -3.58639,-2.89782 -6.91764,-6.4396 z M 0,549.66838 c 0,-0.45738 5.337923,-6.19946 11.862051,-12.76016 l 11.862051,-11.92856 -5.600066,-5.60007 -5.600067,-5.60006 -5.9333195,5.86023 C 3.3273239,522.86289 0.509431,525.5 0.32866515,525.5 0.14789932,525.5 0,525.14359 0,524.70798 0,523.65922 11.436158,512 12.464859,512 13.480703,512 25.5,524.0058 25.5,525.02051 25.5,525.74825 1.0702973,550.5 0.35202479,550.5 0.15841115,550.5 0,550.12577 0,549.66838 Z M 37.441231,513.74097 C 24.071407,500.40844 12.817186,489.5 12.43185,489.5 c -0.385336,0 -2.9463905,2.26517 -5.691231,5.03373 C 1.28728,500.03417 0,501.02698 0,499.73243 c 0,-0.84326 10.067225,-11.4632 11.692725,-12.33468 0.815166,-0.43704 2.74332,1.27784 14.25,12.67378 7.319002,7.24856 18.537521,18.3512 24.930045,24.67253 l 11.62277,11.49333 5.50223,-5.48517 c 3.026225,-3.01684 5.501225,-5.714 5.5,-5.9937 -0.001,-0.27969 -10.96998,-11.30154 -24.375001,-24.49301 -13.405023,-13.19147 -24.567728,-24.29958 -24.80601,-24.68468 -0.317474,-0.51309 1.283877,-2.42112 5.992785,-7.1405 C 33.843859,464.89814 37.03002,462 37.389901,462 c 0.359881,0 11.789581,11.06747 25.399334,24.59438 L 87.53424,511.18876 99.66555,499.09438 C 106.33777,492.44247 112.0219,487 112.29695,487 c 0.27506,0 1.38951,0.91954 2.47657,2.04343 1.08706,1.12389 12.28285,12.18872 24.87951,24.58852 l 22.90304,22.5451 5.47196,-5.455 c 3.00958,-3.00025 5.47096,-5.68383 5.46974,-5.96353 -0.001,-0.27969 -10.96998,-11.30154 -24.375,-24.49301 -13.40503,-13.19147 -24.56773,-24.29958 -24.80601,-24.68468 -0.31747,-0.51309 1.28387,-2.42112 5.99279,-7.14051 3.53431,-3.54218 6.72047,-6.44032 7.08035,-6.44032 0.35988,0 11.79177,11.06965 25.40419,24.59921 l 24.74986,24.59921 12.10678,-12.09921 C 206.30946,492.44465 211.9914,487 212.27727,487 c 0.28588,0 1.40919,0.91954 2.49625,2.04343 1.08707,1.12389 12.28284,12.18872 24.87952,24.58852 l 22.90303,22.5451 5.47197,-5.455 c 3.00958,-3.00025 5.47096,-5.68383 5.46973,-5.96353 -10e-4,-0.27969 -10.96998,-11.30154 -24.375,-24.49301 -13.40502,-13.19147 -24.56773,-24.29958 -24.80601,-24.68468 -0.31747,-0.51309 1.28388,-2.42112 5.99279,-7.14051 3.53431,-3.54218 6.71379,-6.44032 7.06551,-6.44032 0.35172,0 11.67873,10.9125 25.17112,24.25 13.4924,13.3375 24.79959,24.25 25.12711,24.25 0.32751,0 2.84125,-2.26518 5.58609,-5.03373 5.4618,-5.50897 6.74062,-6.49397 6.74062,-5.19185 0,1.03033 -11.49136,12.80898 -12.31033,12.61808 -0.33624,-0.0784 -11.76574,-11.13282 -25.39889,-24.56542 l -24.78753,-24.42292 -2.37663,2.00973 c -4.30039,3.63651 -8.72967,8.43503 -8.55031,9.26307 0.0955,0.441 11.08619,11.53797 24.42369,24.65995 13.3375,13.12197 24.32273,24.15167 24.41163,24.51042 C 275.61625,525.17316 263.52794,538 262.54503,538 262.14384,538 250.705,526.93503 237.1254,513.4112 L 212.43522,488.82239 200.33886,500.9112 C 193.68586,507.56003 187.94138,513 187.57335,513 c -0.36803,0 -11.77492,-11.05447 -25.34864,-24.56548 l -24.6795,-24.56549 -2.39761,2.0273 c -4.31851,3.65151 -8.75102,8.45086 -8.57129,9.28063 0.0955,0.441 11.08619,11.53797 24.42369,24.65995 13.3375,13.12197 24.32273,24.15167 24.41163,24.51042 C 175.61673,525.1751 163.52676,538 162.54132,538 162.13808,538 150.85569,527.0875 137.46933,513.75 124.08298,500.4125 112.8181,489.5 112.43626,489.5 112.05443,489.5 106.45811,494.7875 100,501.25 93.54189,507.7125 87.940355,513 87.552145,513 87.163935,513 75.84728,502.03125 62.40402,488.625 48.960763,475.21875 37.773981,464.18455 37.544505,464.10455 c -0.229476,-0.08 -2.819509,2.14814 -5.755629,4.95142 -3.584582,3.4224 -5.289197,5.39699 -5.188637,6.01042 0.08237,0.50245 11.062261,11.64944 24.399761,24.7711 13.3375,13.12166 24.32273,24.15109 24.411625,24.50984 0.20997,0.84738 -11.899445,13.65549 -12.89938,13.64364 -0.419235,-0.005 -11.70119,-10.91745 -25.071014,-24.25 z m 43.315309,-32.22701 -6.493465,-6.51532 7.74904,-7.87432 c 4.26197,-4.33087 15.34028,-15.5383 24.618465,-24.90537 C 115.90876,432.85186 123.5,424.95546 123.5,424.67136 123.5,423.90857 113.17786,414 112.38323,414 c -0.37364,0 -3.81561,3.20625 -7.64881,7.125 C 84.42199,441.89073 63.29723,463 62.828695,463 c -0.29301,0 -6.128765,-5.56875 -12.968344,-12.375 l -12.4356,-12.375 -18.43073,18.625 C 8.8571195,467.11875 0.43655048,475.5 0.28164547,475.5 c -1.43069947,0 2.24040823,-4.1096 17.99672153,-20.14633 10.053101,-10.23202 18.635036,-18.68257 19.070963,-18.779 0.497198,-0.10998 5.416807,4.44611 13.19998,12.22461 l 12.407385,12.39994 5.204575,-5.22461 C 71.023785,453.10108 81.888175,442.0875 92.304355,431.5 c 10.416175,-10.5875 19.248215,-19.44496 19.626755,-19.68324 0.50032,-0.31494 2.44677,1.32138 7.12857,5.99279 3.54218,3.53431 6.44032,6.65683 6.44032,6.93894 0,0.28211 -10.9266,11.60408 -24.28132,25.15993 -13.35473,13.55586 -24.21098,24.92678 -24.125005,25.26873 0.08598,0.34194 2.592085,2.96187 5.56913,5.82208 l 5.4128,5.20036 7.828645,-7.9748 c 25.44487,-25.91988 40.88039,-41.22258 41.56464,-41.20698 0.42961,0.01 6.28652,5.28096 13.01536,11.7137 7.276,6.95582 12.46864,11.55862 12.81258,11.35719 0.31808,-0.18628 11.19501,-11.1387 24.17096,-24.3387 12.97595,-13.2 23.97279,-24.06284 24.43742,-24.13964 0.52394,-0.0866 3.30695,2.33081 7.32769,6.36509 l 6.4829,6.50473 -10.73078,10.88491 c -5.90193,5.9867 -17.02521,17.24385 -24.71841,25.01589 l -13.98762,14.13099 5.4855,5.50523 c 3.01703,3.02787 5.74459,5.44393 6.06124,5.36901 0.31666,-0.0749 11.30609,-11.04871 24.42096,-24.38621 14.61673,-14.86486 24.26282,-24.30433 24.92426,-24.39037 0.82612,-0.10747 3.8909,2.676 13.07514,11.875 6.59786,6.60845 12.22406,12.01537 12.50268,12.01537 0.27862,0 8.38038,-7.88897 18.00391,-17.53106 9.62353,-9.64208 17.89107,-17.74999 18.37232,-18.01759 0.68333,-0.37996 0.875,-0.29744 0.875,0.37668 0,0.84812 -34.8615,36.25636 -36.67991,37.25516 -0.80206,0.44054 -2.62554,-1.17991 -13.26296,-11.78621 -6.78318,-6.76334 -12.55222,-12.30059 -12.82009,-12.305 -0.26787,-0.005 -11.54065,11.18934 -25.05063,24.875 L 187.62283,488.25 181.06141,481.77471 C 177.45264,478.21329 174.5,475.04314 174.5,474.72993 174.5,474.41673 185.4125,463.06326 198.75,449.5 212.0875,435.93674 223,424.58087 223,424.26472 223,423.57444 212.85406,413.5 212.15889,413.5 c -0.26735,0 -11.34553,11.025 -24.61817,24.5 -13.27265,13.475 -24.35508,24.5 -24.62764,24.5 -0.27255,0 -6.01398,-5.29928 -12.75874,-11.77618 -6.74475,-6.4769 -12.57142,-11.70815 -12.94815,-11.625 -0.37673,0.0831 -11.42227,11.06368 -24.54565,24.40118 -13.12338,13.3375 -24.209405,24.31283 -24.635615,24.38963 -0.44146,0.0796 -3.56919,-2.66403 -7.268385,-6.37567 z m 200.35303,0.43967 c -3.49776,-3.3255 -6.43846,-6.39487 -6.53487,-6.82084 -0.16818,-0.743 22.60342,-24.10046 24.5503,-25.18192 0.68066,-0.3781 0.875,-0.29745 0.875,0.36316 0,0.46706 -5.34375,6.23098 -11.875,12.8087 l -11.875,11.9595 5.5,5.19269 c 3.025,2.85597 5.72922,5.19997 6.00938,5.20888 0.28016,0.009 2.75516,-2.24898 5.5,-5.01753 C 298.72118,474.9573 300,473.9723 300,475.27442 300,476.10133 288.68833,488 287.90221,488 c -0.23818,0 -3.29487,-2.72087 -6.79264,-6.04637 z M 0,449.66838 C 0,449.211 5.3198425,443.4871 11.821872,436.94862 l 11.821871,-11.88815 -2.03418,-2.40524 c -1.118799,-1.32288 -3.628971,-3.97701 -5.57816,-5.89806 l -3.543979,-3.49283 -6.033359,6.11783 C 3.1357182,422.74698 0.32604795,425.5 0.21035352,425.5 0.09465908,425.5 0,425.14222 0,424.70494 0,423.78167 11.873758,411.5 12.766357,411.5 13.579082,411.5 25.5,424.21966 25.5,425.08684 25.5,425.77044 1.0284949,450.5 0.35202479,450.5 0.15841115,450.5 0,450.12577 0,449.66838 Z M 37.104374,413.41168 12.45875,388.84394 6.55804,394.67197 C 3.3126496,397.87738 0.509431,400.5 0.32866515,400.5 0.14789932,400.5 0,400.14359 0,399.70798 0,398.80691 11.363635,387 12.230883,387 c 0.311393,0 1.455583,0.91954 2.542643,2.04343 1.087061,1.12389 12.28284,12.18872 24.87951,24.58852 l 22.903034,22.5451 5.471965,-5.455 c 3.00958,-3.00024 5.47096,-5.68384 5.469735,-5.96353 -0.001,-0.27969 -10.96998,-11.30154 -24.375001,-24.49301 -13.405023,-13.19147 -24.567728,-24.29958 -24.80601,-24.68468 -0.317474,-0.51309 1.283877,-2.42112 5.992785,-7.14051 C 33.843859,364.89814 37.029592,362 37.388951,362 c 0.359359,0 11.633997,10.9125 25.054749,24.25 13.420755,13.3375 24.6069,24.25 24.8581,24.25 0.251195,0 5.404805,-4.96502 11.45246,-11.03337 6.04766,-6.06836 11.6414,-11.37555 12.43054,-11.79377 l 1.4348,-0.76039 13.5652,13.41454 c 7.46086,7.378 18.68294,18.4761 24.93797,24.66246 l 11.37277,11.24792 5.50223,-5.48517 c 3.02623,-3.01684 5.50122,-5.714 5.5,-5.99369 -0.001,-0.2797 -10.96998,-11.30155 -24.375,-24.49302 -13.40503,-13.19147 -24.56773,-24.29958 -24.80601,-24.68468 -0.31747,-0.51309 1.28387,-2.42112 5.99279,-7.1405 3.53431,-3.54219 6.72047,-6.44033 7.08035,-6.44033 0.35988,0 11.79177,11.06964 25.40419,24.59921 l 24.74986,24.59921 12.10678,-12.09921 C 206.30946,392.44464 211.9914,387 212.27727,387 c 0.28588,0 1.40919,0.91954 2.49625,2.04343 1.08707,1.12389 12.28284,12.18872 24.87952,24.58852 l 22.90303,22.5451 5.47197,-5.455 c 3.00958,-3.00024 5.47096,-5.68384 5.46973,-5.96353 -10e-4,-0.27969 -10.96998,-11.30154 -24.375,-24.49301 -13.40502,-13.19147 -24.56773,-24.29958 -24.80601,-24.68468 -0.31747,-0.51309 1.28388,-2.42112 5.99279,-7.14051 3.53431,-3.54218 6.72047,-6.44032 7.08035,-6.44032 0.35988,0 11.78665,11.06457 25.39283,24.58791 l 24.7385,24.58792 6.06016,-5.96292 c 3.42696,-3.37196 6.15509,-5.69451 6.27862,-5.3452 0.12015,0.33974 -0.22886,1.23974 -0.77559,2 C 297.53163,404.02695 288.21199,413 287.52215,413 c -0.33987,0 -11.72371,-11.05447 -25.29744,-24.56548 l -24.6795,-24.56549 -2.3976,2.02729 c -4.31851,3.65152 -8.75103,8.45087 -8.57129,9.28064 0.0955,0.441 11.08618,11.53798 24.42368,24.65995 13.3375,13.12197 24.32273,24.15166 24.41163,24.51042 C 275.61673,425.17509 263.52676,438 262.54132,438 c -0.40324,0 -11.68563,-10.9125 -25.07199,-24.25 -13.38636,-13.3375 -24.65124,-24.25 -25.03307,-24.25 -0.38183,0 -5.97815,5.2875 -12.43626,11.75 -6.45811,6.4625 -12.04662,11.75 -12.41891,11.75 -0.37228,0 -11.78266,-11.05447 -25.35638,-24.56548 l -24.6795,-24.56549 -2.3976,2.02729 c -4.31851,3.65152 -8.75103,8.45087 -8.57129,9.28064 0.0955,0.441 11.08618,11.53798 24.42368,24.65995 13.3375,13.12197 24.32273,24.15166 24.41163,24.51042 C 175.62077,425.19142 163.51681,438 162.51001,438 c -0.42046,0 -10.21347,-9.46457 -21.76224,-21.03239 -11.54878,-11.56781 -22.7382,-22.61365 -24.86539,-24.54632 l -3.86762,-3.51392 -12.01394,11.67131 c -6.607665,6.41922 -12.35577,11.74547 -12.773565,11.8361 -0.45758,0.0993 -10.48524,-9.52012 -25.218905,-24.1921 l -24.459277,-24.35688 -2.399537,2.02891 c -4.335139,3.66554 -8.753046,8.45188 -8.573221,9.28817 0.09553,0.44426 11.086185,11.54073 24.423685,24.65884 13.3375,13.11811 24.32273,24.14514 24.411625,24.5045 0.20999,0.84891 -11.89954,13.65698 -12.89938,13.64349 -0.419235,-0.006 -11.852775,-11.06577 -25.407871,-24.57803 z M 81.061415,381.7747 C 77.45264,378.21329 74.5,375.04314 74.5,374.72993 74.5,374.41672 85.4125,363.06326 98.75,349.5 112.0875,335.93675 123,324.58087 123,324.26472 123,323.57444 112.85406,313.5 112.15889,313.5 c -0.26735,0 -11.34552,11.025 -24.61817,24.5 -13.27265,13.475 -24.365475,24.5 -24.65072,24.5 -0.28525,0 -5.50034,-4.78125 -11.5891,-10.625 -6.088757,-5.84375 -11.691493,-11.17674 -12.450524,-11.8511 L 37.47032,338.7978 18.925905,357.2739 C 8.619314,367.54252 0.27932739,375.4756 0.15150811,375.13229 c -0.12649028,-0.33974 0.22170569,-1.23975 0.77376879,-2 1.8991713,-2.6154 35.8585631,-36.13227 36.5912851,-36.11448 0.403391,0.01 6.238853,5.28096 12.967693,11.7137 7.276,6.95583 12.46864,11.55862 12.81258,11.35719 0.31808,-0.18628 11.19501,-11.1387 24.17096,-24.3387 12.975945,-13.2 23.972785,-24.06284 24.437415,-24.13964 0.52394,-0.0866 3.30695,2.33082 7.32769,6.3651 l 6.4829,6.50473 -10.73078,10.8849 c -5.90192,5.9867 -17.02521,17.24385 -24.718405,25.01589 l -13.987625,14.13099 5.485505,5.50523 c 3.01703,3.02787 5.744585,5.44393 6.06124,5.36901 C 88.14239,385.31129 99.13538,374.3375 112.2546,361 c 13.7591,-13.98803 24.22984,-24.25 24.74333,-24.25 0.48961,0 6.55664,5.49492 13.4823,12.21093 l 12.59209,12.21093 5.13757,-5.21093 c 2.82566,-2.86601 13.66404,-13.87343 24.08527,-24.46093 10.42123,-10.5875 19.25741,-19.44496 19.63594,-19.68324 0.50033,-0.31495 2.44678,1.32138 7.12857,5.99278 3.54218,3.53432 6.44033,6.65685 6.44033,6.93895 0,0.28211 -10.9266,11.60408 -24.28133,25.15993 -13.35472,13.55586 -24.21097,24.92678 -24.125,25.26873 0.086,0.34194 2.59209,2.96187 5.56913,5.82208 l 5.4128,5.20036 7.82865,-7.9748 C 221.16344,352.49405 236.78381,337 237.46514,337 c 0.42754,0 6.23411,5.45335 12.90348,12.11854 l 12.12612,12.11855 18.39331,-18.36855 C 291.00438,332.76585 299.44306,324.5 299.64069,324.5 c 1.62915,0 -2.05246,4.11031 -18.00034,20.09638 C 271.54254,354.71837 262.93453,363 262.51144,363 c -0.42309,0 -6.16749,-5.40433 -12.76535,-12.00963 -6.59785,-6.60529 -12.27257,-11.94904 -12.61048,-11.875 -0.33791,0.074 -11.3517,11.04713 -24.47507,24.38463 -13.12338,13.3375 -24.20941,24.31283 -24.63562,24.38963 -0.44146,0.0795 -3.56919,-2.66403 -7.26838,-6.37567 l -6.49346,-6.51532 7.74904,-7.87432 c 4.26197,-4.33087 15.34028,-15.5383 24.61846,-24.90537 C 215.90876,332.85187 223.5,324.95545 223.5,324.67136 223.5,323.90857 213.17786,314 212.38323,314 c -0.37364,0 -3.81561,3.20625 -7.64881,7.125 C 184.55743,341.75227 163.29883,363 162.83801,363 162.55012,363 156.77302,357.4875 150,350.75 c -6.77302,-6.7375 -12.52506,-12.25361 -12.78229,-12.25802 -0.25724,-0.004 -11.52132,11.18933 -25.0313,24.875 L 87.622835,388.25 l -6.56142,-6.4753 z m 199.959385,-0.0233 c -3.58644,-3.54862 -6.5208,-6.67741 -6.5208,-6.95285 0,-0.58884 23.33988,-24.14354 24.625,-24.85165 0.67896,-0.37412 0.875,-0.29207 0.875,0.36619 0,0.46658 -5.175,6.05357 -11.5,12.41552 -6.325,6.36195 -11.5,11.80715 -11.5,12.10045 0,0.56805 9.6983,10.29652 10.56874,10.60161 0.28359,0.0994 3.11631,-2.3756 6.29494,-5.5 3.72332,-3.6598 5.86484,-5.4368 6.01971,-4.99506 0.14133,0.40313 -2.35187,3.27791 -6.0507,6.97675 l -6.29109,6.29108 -6.5208,-6.45204 z M 0,349.66838 c 0,-0.45738 5.337923,-6.19946 11.862051,-12.76017 l 11.862051,-11.92855 -5.600066,-5.60007 -5.600067,-5.60007 -5.9333195,5.86024 C 3.3273239,322.86289 0.509431,325.5 0.32866515,325.5 0.14789932,325.5 0,325.14359 0,324.70798 0,323.65922 11.436158,312 12.464859,312 13.480703,312 25.5,324.0058 25.5,325.02051 25.5,325.74825 1.0702973,350.5 0.35202479,350.5 0.15841115,350.5 0,350.12577 0,349.66838 Z M 43.116037,319.35952 C 32.877217,309.10725 24.5,300.55725 24.5,300.35952 c 0,-1.62681 4.078016,2.02063 19.852398,17.75631 l 18.160387,18.11583 5.610435,-5.61044 5.610435,-5.61043 L 61.61683,312.85696 C 54.952575,306.17236 49.5,300.54494 49.5,300.35157 49.5,300.15821 49.874608,300 50.33246,300 51.389355,300 75.5,323.93565 75.5,324.98488 75.5,325.98427 63.48329,338 62.483815,338 c -0.413455,0 -9.12896,-8.38822 -19.367778,-18.64048 z m 99.999993,0 c -10.23882,-10.25227 -18.61603,-18.80227 -18.61603,-19 0,-1.62681 4.07801,2.02063 19.8524,17.75631 l 18.16038,18.11583 5.61044,-5.61044 5.61043,-5.61043 -12.24182,-12.31751 c -6.82943,-6.87165 -11.96873,-12.41793 -11.62412,-12.54463 0.33974,-0.12492 1.23974,0.22356 2,0.77439 2.41627,1.75067 23.63229,23.34871 23.63229,24.05781 0,0.95712 -12.02886,13.01915 -12.98335,13.01915 -0.43152,0 -9.1618,-8.38822 -19.40062,-18.64048 z m 100,0 c -10.23882,-10.25227 -18.61603,-18.80227 -18.61603,-19 0,-1.62679 4.07766,2.02027 19.84952,17.75344 l 18.15752,18.11297 5.49648,-5.47944 c 3.02306,-3.01369 5.49648,-5.74626 5.49648,-6.07238 0,-0.32612 -5.27634,-5.70736 -11.7252,-11.9583 -6.44886,-6.25095 -11.8418,-11.66922 -11.98431,-12.04059 -0.14817,-0.38612 0.0693,-0.67522 0.50789,-0.67522 0.83334,0 24.84832,23.28506 25.11325,24.34994 C 275.62196,325.19542 263.51315,338 262.50328,338 c -0.42417,0 -9.14843,-8.38822 -19.38725,-18.64048 z M 81.13218,307.375 C 74.99362,301.33234 73.93478,300 75.271135,300 c 0.44347,0 3.37639,2.51137 6.51759,5.58082 l 5.711275,5.58082 5.711275,-5.58082 c 3.1412,-3.06945 6.07412,-5.58082 6.51759,-5.58082 0.616125,0 0.693915,0.20639 0.329775,0.875 C 99.27474,302.31435 88.206925,313 87.5,313 c -0.35945,0 -3.22497,-2.53125 -6.36782,-5.625 z m 99.4672,-0.54459 c -3.35466,-3.39327 -6.09938,-6.31827 -6.09938,-6.5 0,-1.26647 2.35722,0.43155 7.28872,5.25041 l 5.71128,5.58082 5.71127,-5.58082 c 4.9315,-4.81886 7.28873,-6.51688 7.28873,-5.25041 0,0.7274 -12.25364,12.66959 -13,12.66959 -0.44068,0 -3.54596,-2.77631 -6.90062,-6.16959 z m 100,0 c -3.35465,-3.39327 -6.09938,-6.31827 -6.09938,-6.5 0,-1.26647 2.35723,0.43155 7.28872,5.25041 l 5.71128,5.58082 5.71127,-5.58082 C 298.60459,300.3107 300,299.27498 300,300.54201 300,301.42931 288.4061,313 287.51702,313 c -0.45004,0 -3.56298,-2.77631 -6.91764,-6.16959 z"
         style="fill:#000000;fill-opacity:1" />
    </g>
    <g
       transform="translate(300,0)"
       id="g83692"
       style="fill:#000000;fill-opacity:1">
      <path
         style="fill:#000000;fill-opacity:1"
         d="M 0,599.43364 C 0,598.61197 11.636288,587 12.45968,587 c 0.735382,0 11.788989,10.63778 12.59896,12.125 0.364139,0.66861 0.286355,0.875 -0.329773,0.875 -0.443475,0 -3.376391,-2.51137 -6.517592,-5.58082 L 12.5,588.83835 6.788725,594.41918 C 1.3668788,599.71718 0,600.72682 0,599.43364 Z M 36.667539,587.89763 C 29.975393,581.24132 24.5,575.4442 24.5,575.01512 24.5,574.01573 36.516708,562 37.516183,562 38.245021,562 75.5,598.91823 75.5,599.64048 c 0,1.62682 -4.078015,-2.02063 -19.8524,-17.75631 l -18.160387,-18.11583 -5.610435,5.61044 -5.610434,5.61043 12.116828,12.15383 C 45.047427,593.82764 50.5,599.45506 50.5,599.64843 c 0,1.52894 -3.297827,-1.27259 -13.832461,-11.7508 z M 100,599.69671 c 0,-0.47395 6.93188,-7.52224 10.13918,-10.30946 l 2.88918,-2.51077 5.77687,5.68677 c 6.19479,6.09816 7.26167,7.43675 5.9272,7.43675 -0.44152,0 -3.2254,-2.3625 -6.1864,-5.25 -2.961,-2.8875 -5.56921,-5.25 -5.79603,-5.25 -0.22682,0 -2.83503,2.3625 -5.79604,5.25 -4.6154,4.50084 -6.95396,6.16438 -6.95396,4.94671 z m 36.91838,-11.54865 C 130.36327,581.6295 125,575.97731 125,575.58766 125,574.72188 136.88214,562 137.69077,562 c 0.61337,0 37.80923,37.02985 37.80923,37.64048 0,1.62582 -4.06323,-2.00588 -19.73385,-17.63805 l -18.04183,-17.99757 -4.25222,4.37257 c -2.33873,2.40492 -4.79616,4.9969 -5.46097,5.75997 l -1.20875,1.38741 11.84881,11.8865 c 6.51684,6.53757 11.84881,12.04449 11.84881,12.23759 0,1.52314 -3.26436,-1.24109 -13.58162,-11.50083 z M 199.94136,599.125 C 200.59515,597.92455 211.73511,587 212.30544,587 c 0.25244,0 3.3775,2.925 6.94456,6.5 7.96607,7.98379 7.26686,8.96553 -0.89027,1.25 -3.05277,-2.8875 -5.76911,-5.25 -6.03631,-5.25 -0.26719,0 -2.90845,2.3625 -5.86946,5.25 -2.961,2.8875 -5.74488,5.25 -6.18639,5.25 -0.61274,0 -0.68995,-0.20712 -0.32621,-0.875 z m 36.87083,-11 c -6.6342,-6.53125 -12.25715,-12.18311 -12.49543,-12.55967 -0.31418,-0.49652 1.33275,-2.45461 5.99278,-7.125 3.53432,-3.54219 6.67209,-6.44033 6.97283,-6.44033 0.65449,0 37.02444,35.70477 37.74898,37.05859 0.40299,0.75298 0.33098,0.94141 -0.35977,0.94141 -0.47497,0 -9.02771,-8.14409 -19.00608,-18.09797 l -18.14248,-18.09797 -1.38651,1.20814 c -4.21931,3.67652 -9.63651,9.32718 -9.63651,10.0518 0,0.45984 5.19432,5.85946 11.54294,11.99915 C 249.84093,598.47287 251.21755,600 249.70478,600 c -0.45671,0 -6.25838,-5.34375 -12.89259,-11.875 z M 81.061415,581.77471 C 77.45264,578.21329 74.5,575.04314 74.5,574.72994 74.5,574.41673 85.4125,563.06326 98.75,549.5 112.0875,535.93674 123,524.58087 123,524.26472 123,523.57444 112.85406,513.5 112.15889,513.5 c -0.26735,0 -11.34552,11.025 -24.61817,24.5 -13.27265,13.475 -24.365475,24.5 -24.65072,24.5 -0.28525,0 -5.50034,-4.78125 -11.5891,-10.625 -6.088757,-5.84375 -11.691493,-11.17674 -12.450524,-11.8511 L 37.47032,538.79781 19.094473,557.1489 C 8.987758,567.24201 0.5569362,575.5 0.35931367,575.5 c -1.62915387,0 2.05245053,-4.11031 18.00033733,-20.09639 10.097809,-10.12199 18.704059,-18.3956 19.125,-18.3858 0.420942,0.01 6.270764,5.28096 12.999604,11.7137 7.276,6.95582 12.46864,11.55862 12.81258,11.35719 0.31808,-0.18628 11.19501,-11.1387 24.17096,-24.3387 12.975945,-13.2 23.972785,-24.06283 24.437415,-24.13964 0.52394,-0.0866 3.30695,2.33082 7.32769,6.36509 l 6.4829,6.50473 -10.73078,10.88491 c -5.90192,5.9867 -17.02521,17.24386 -24.718405,25.01589 l -13.987625,14.13099 5.485505,5.50523 c 3.01703,3.02787 5.744585,5.44393 6.06124,5.36901 C 88.14239,585.31129 99.13114,574.3375 112.24518,561 c 13.11403,-13.3375 24.18581,-24.32749 24.60395,-24.4222 0.45669,-0.10343 5.70857,4.76165 13.15291,12.18422 6.81596,6.79603 12.63617,12.27351 12.93379,12.17219 0.29762,-0.10132 11.27796,-11.09671 24.40076,-24.43421 13.12279,-13.3375 24.17983,-24.44496 24.57119,-24.68324 0.52531,-0.31984 2.39741,1.24885 7.15189,5.99278 3.54218,3.53432 6.44033,6.65684 6.44033,6.93895 0,0.28211 -10.9266,11.60408 -24.28133,25.15993 -13.35472,13.55586 -24.21097,24.92678 -24.125,25.26873 0.086,0.34194 2.59209,2.96187 5.56913,5.82208 l 5.4128,5.20036 7.82865,-7.9748 C 220.6505,553.01657 236.77587,537 237.40908,537 c 0.39672,0 4.19408,3.31875 8.43859,7.375 4.24452,4.05625 9.85417,9.37585 12.46589,11.82133 l 4.74859,4.44632 18.28065,-18.19632 c 10.12488,-10.07819 18.38215,-17.92075 18.50816,-17.57862 0.12513,0.33974 -0.2277,1.257 -0.78408,2.03836 -1.44841,2.0341 -35.51888,35.59393 -36.13553,35.59393 -0.2826,0 -6.03226,-5.29928 -12.77701,-11.77618 -6.74476,-6.4769 -12.57143,-11.70815 -12.94816,-11.625 -0.37672,0.0831 -11.42227,11.06368 -24.54564,24.40118 -13.12338,13.3375 -24.20941,24.31283 -24.63562,24.38963 -0.44146,0.0796 -3.56919,-2.66403 -7.26838,-6.37567 l -6.49346,-6.51532 7.74904,-7.87432 c 4.26197,-4.33087 15.34028,-15.53829 24.61846,-24.90537 9.27818,-9.36709 16.86942,-17.26349 16.86942,-17.54759 0,-0.89437 -10.47444,-10.75055 -11.24578,-10.58199 -0.40431,0.0883 -11.36362,10.96063 -24.35403,24.16063 -12.99041,13.2 -24.04432,24.31124 -24.56425,24.69166 -0.87156,0.63769 -1.93712,-0.29869 -13.65542,-12 L 136.97043,538.25 l -24.67379,25 -24.673805,25 -6.56142,-6.47529 z M 280.55681,581.5604 c -3.33124,-3.54178 -6.05681,-6.6415 -6.05681,-6.88828 0,-0.73939 24.9529,-25.38588 25.32488,-25.01391 0.7746,0.7746 -1.51739,3.35782 -11.68124,13.16553 -5.87147,5.66573 -10.91105,10.74167 -11.19909,11.27986 -0.45591,0.85189 0.19039,1.70057 4.99387,6.5576 l 5.51757,5.57907 5.94334,-5.87013 c 3.26883,-3.22858 6.09124,-5.87014 6.272,-5.87014 0.18077,0 0.32867,0.3564 0.32867,0.79201 C 300,576.37833 288.54517,588 287.47445,588 c -0.47345,0 -3.58639,-2.89782 -6.91764,-6.4396 z M 0,549.66838 c 0,-0.45738 5.337923,-6.19946 11.862051,-12.76016 l 11.862051,-11.92856 -5.600066,-5.60007 -5.600067,-5.60006 -5.9333195,5.86023 C 3.3273239,522.86289 0.509431,525.5 0.32866515,525.5 0.14789932,525.5 0,525.14359 0,524.70798 0,523.65922 11.436158,512 12.464859,512 13.480703,512 25.5,524.0058 25.5,525.02051 25.5,525.74825 1.0702973,550.5 0.35202479,550.5 0.15841115,550.5 0,550.12577 0,549.66838 Z M 37.441231,513.74097 C 24.071407,500.40844 12.817186,489.5 12.43185,489.5 c -0.385336,0 -2.9463905,2.26517 -5.691231,5.03373 C 1.28728,500.03417 0,501.02698 0,499.73243 c 0,-0.84326 10.067225,-11.4632 11.692725,-12.33468 0.815166,-0.43704 2.74332,1.27784 14.25,12.67378 7.319002,7.24856 18.537521,18.3512 24.930045,24.67253 l 11.62277,11.49333 5.50223,-5.48517 c 3.026225,-3.01684 5.501225,-5.714 5.5,-5.9937 -0.001,-0.27969 -10.96998,-11.30154 -24.375001,-24.49301 -13.405023,-13.19147 -24.567728,-24.29958 -24.80601,-24.68468 -0.317474,-0.51309 1.283877,-2.42112 5.992785,-7.1405 C 33.843859,464.89814 37.03002,462 37.389901,462 c 0.359881,0 11.789581,11.06747 25.399334,24.59438 L 87.53424,511.18876 99.66555,499.09438 C 106.33777,492.44247 112.0219,487 112.29695,487 c 0.27506,0 1.38951,0.91954 2.47657,2.04343 1.08706,1.12389 12.28285,12.18872 24.87951,24.58852 l 22.90304,22.5451 5.47196,-5.455 c 3.00958,-3.00025 5.47096,-5.68383 5.46974,-5.96353 -0.001,-0.27969 -10.96998,-11.30154 -24.375,-24.49301 -13.40503,-13.19147 -24.56773,-24.29958 -24.80601,-24.68468 -0.31747,-0.51309 1.28387,-2.42112 5.99279,-7.14051 3.53431,-3.54218 6.72047,-6.44032 7.08035,-6.44032 0.35988,0 11.79177,11.06965 25.40419,24.59921 l 24.74986,24.59921 12.10678,-12.09921 C 206.30946,492.44465 211.9914,487 212.27727,487 c 0.28588,0 1.40919,0.91954 2.49625,2.04343 1.08707,1.12389 12.28284,12.18872 24.87952,24.58852 l 22.90303,22.5451 5.47197,-5.455 c 3.00958,-3.00025 5.47096,-5.68383 5.46973,-5.96353 -10e-4,-0.27969 -10.96998,-11.30154 -24.375,-24.49301 -13.40502,-13.19147 -24.56773,-24.29958 -24.80601,-24.68468 -0.31747,-0.51309 1.28388,-2.42112 5.99279,-7.14051 3.53431,-3.54218 6.71379,-6.44032 7.06551,-6.44032 0.35172,0 11.67873,10.9125 25.17112,24.25 13.4924,13.3375 24.79959,24.25 25.12711,24.25 0.32751,0 2.84125,-2.26518 5.58609,-5.03373 5.4618,-5.50897 6.74062,-6.49397 6.74062,-5.19185 0,1.03033 -11.49136,12.80898 -12.31033,12.61808 -0.33624,-0.0784 -11.76574,-11.13282 -25.39889,-24.56542 l -24.78753,-24.42292 -2.37663,2.00973 c -4.30039,3.63651 -8.72967,8.43503 -8.55031,9.26307 0.0955,0.441 11.08619,11.53797 24.42369,24.65995 13.3375,13.12197 24.32273,24.15167 24.41163,24.51042 C 275.61625,525.17316 263.52794,538 262.54503,538 262.14384,538 250.705,526.93503 237.1254,513.4112 L 212.43522,488.82239 200.33886,500.9112 C 193.68586,507.56003 187.94138,513 187.57335,513 c -0.36803,0 -11.77492,-11.05447 -25.34864,-24.56548 l -24.6795,-24.56549 -2.39761,2.0273 c -4.31851,3.65151 -8.75102,8.45086 -8.57129,9.28063 0.0955,0.441 11.08619,11.53797 24.42369,24.65995 13.3375,13.12197 24.32273,24.15167 24.41163,24.51042 C 175.61673,525.1751 163.52676,538 162.54132,538 162.13808,538 150.85569,527.0875 137.46933,513.75 124.08298,500.4125 112.8181,489.5 112.43626,489.5 112.05443,489.5 106.45811,494.7875 100,501.25 93.54189,507.7125 87.940355,513 87.552145,513 87.163935,513 75.84728,502.03125 62.40402,488.625 48.960763,475.21875 37.773981,464.18455 37.544505,464.10455 c -0.229476,-0.08 -2.819509,2.14814 -5.755629,4.95142 -3.584582,3.4224 -5.289197,5.39699 -5.188637,6.01042 0.08237,0.50245 11.062261,11.64944 24.399761,24.7711 13.3375,13.12166 24.32273,24.15109 24.411625,24.50984 0.20997,0.84738 -11.899445,13.65549 -12.89938,13.64364 -0.419235,-0.005 -11.70119,-10.91745 -25.071014,-24.25 z m 43.315309,-32.22701 -6.493465,-6.51532 7.74904,-7.87432 c 4.26197,-4.33087 15.34028,-15.5383 24.618465,-24.90537 C 115.90876,432.85186 123.5,424.95546 123.5,424.67136 123.5,423.90857 113.17786,414 112.38323,414 c -0.37364,0 -3.81561,3.20625 -7.64881,7.125 C 84.42199,441.89073 63.29723,463 62.828695,463 c -0.29301,0 -6.128765,-5.56875 -12.968344,-12.375 l -12.4356,-12.375 -18.43073,18.625 C 8.8571195,467.11875 0.43655048,475.5 0.28164547,475.5 c -1.43069947,0 2.24040823,-4.1096 17.99672153,-20.14633 10.053101,-10.23202 18.635036,-18.68257 19.070963,-18.779 0.497198,-0.10998 5.416807,4.44611 13.19998,12.22461 l 12.407385,12.39994 5.204575,-5.22461 C 71.023785,453.10108 81.888175,442.0875 92.304355,431.5 c 10.416175,-10.5875 19.248215,-19.44496 19.626755,-19.68324 0.50032,-0.31494 2.44677,1.32138 7.12857,5.99279 3.54218,3.53431 6.44032,6.65683 6.44032,6.93894 0,0.28211 -10.9266,11.60408 -24.28132,25.15993 -13.35473,13.55586 -24.21098,24.92678 -24.125005,25.26873 0.08598,0.34194 2.592085,2.96187 5.56913,5.82208 l 5.4128,5.20036 7.828645,-7.9748 c 25.44487,-25.91988 40.88039,-41.22258 41.56464,-41.20698 0.42961,0.01 6.28652,5.28096 13.01536,11.7137 7.276,6.95582 12.46864,11.55862 12.81258,11.35719 0.31808,-0.18628 11.19501,-11.1387 24.17096,-24.3387 12.97595,-13.2 23.97279,-24.06284 24.43742,-24.13964 0.52394,-0.0866 3.30695,2.33081 7.32769,6.36509 l 6.4829,6.50473 -10.73078,10.88491 c -5.90193,5.9867 -17.02521,17.24385 -24.71841,25.01589 l -13.98762,14.13099 5.4855,5.50523 c 3.01703,3.02787 5.74459,5.44393 6.06124,5.36901 0.31666,-0.0749 11.30609,-11.04871 24.42096,-24.38621 14.61673,-14.86486 24.26282,-24.30433 24.92426,-24.39037 0.82612,-0.10747 3.8909,2.676 13.07514,11.875 6.59786,6.60845 12.22406,12.01537 12.50268,12.01537 0.27862,0 8.38038,-7.88897 18.00391,-17.53106 9.62353,-9.64208 17.89107,-17.74999 18.37232,-18.01759 0.68333,-0.37996 0.875,-0.29744 0.875,0.37668 0,0.84812 -34.8615,36.25636 -36.67991,37.25516 -0.80206,0.44054 -2.62554,-1.17991 -13.26296,-11.78621 -6.78318,-6.76334 -12.55222,-12.30059 -12.82009,-12.305 -0.26787,-0.005 -11.54065,11.18934 -25.05063,24.875 L 187.62283,488.25 181.06141,481.77471 C 177.45264,478.21329 174.5,475.04314 174.5,474.72993 174.5,474.41673 185.4125,463.06326 198.75,449.5 212.0875,435.93674 223,424.58087 223,424.26472 223,423.57444 212.85406,413.5 212.15889,413.5 c -0.26735,0 -11.34553,11.025 -24.61817,24.5 -13.27265,13.475 -24.35508,24.5 -24.62764,24.5 -0.27255,0 -6.01398,-5.29928 -12.75874,-11.77618 -6.74475,-6.4769 -12.57142,-11.70815 -12.94815,-11.625 -0.37673,0.0831 -11.42227,11.06368 -24.54565,24.40118 -13.12338,13.3375 -24.209405,24.31283 -24.635615,24.38963 -0.44146,0.0796 -3.56919,-2.66403 -7.268385,-6.37567 z m 200.35303,0.43967 c -3.49776,-3.3255 -6.43846,-6.39487 -6.53487,-6.82084 -0.16818,-0.743 22.60342,-24.10046 24.5503,-25.18192 0.68066,-0.3781 0.875,-0.29745 0.875,0.36316 0,0.46706 -5.34375,6.23098 -11.875,12.8087 l -11.875,11.9595 5.5,5.19269 c 3.025,2.85597 5.72922,5.19997 6.00938,5.20888 0.28016,0.009 2.75516,-2.24898 5.5,-5.01753 C 298.72118,474.9573 300,473.9723 300,475.27442 300,476.10133 288.68833,488 287.90221,488 c -0.23818,0 -3.29487,-2.72087 -6.79264,-6.04637 z M 0,449.66838 C 0,449.211 5.3198425,443.4871 11.821872,436.94862 l 11.821871,-11.88815 -2.03418,-2.40524 c -1.118799,-1.32288 -3.628971,-3.97701 -5.57816,-5.89806 l -3.543979,-3.49283 -6.033359,6.11783 C 3.1357182,422.74698 0.32604795,425.5 0.21035352,425.5 0.09465908,425.5 0,425.14222 0,424.70494 0,423.78167 11.873758,411.5 12.766357,411.5 13.579082,411.5 25.5,424.21966 25.5,425.08684 25.5,425.77044 1.0284949,450.5 0.35202479,450.5 0.15841115,450.5 0,450.12577 0,449.66838 Z M 37.104374,413.41168 12.45875,388.84394 6.55804,394.67197 C 3.3126496,397.87738 0.509431,400.5 0.32866515,400.5 0.14789932,400.5 0,400.14359 0,399.70798 0,398.80691 11.363635,387 12.230883,387 c 0.311393,0 1.455583,0.91954 2.542643,2.04343 1.087061,1.12389 12.28284,12.18872 24.87951,24.58852 l 22.903034,22.5451 5.471965,-5.455 c 3.00958,-3.00024 5.47096,-5.68384 5.469735,-5.96353 -0.001,-0.27969 -10.96998,-11.30154 -24.375001,-24.49301 -13.405023,-13.19147 -24.567728,-24.29958 -24.80601,-24.68468 -0.317474,-0.51309 1.283877,-2.42112 5.992785,-7.14051 C 33.843859,364.89814 37.029592,362 37.388951,362 c 0.359359,0 11.633997,10.9125 25.054749,24.25 13.420755,13.3375 24.6069,24.25 24.8581,24.25 0.251195,0 5.404805,-4.96502 11.45246,-11.03337 6.04766,-6.06836 11.6414,-11.37555 12.43054,-11.79377 l 1.4348,-0.76039 13.5652,13.41454 c 7.46086,7.378 18.68294,18.4761 24.93797,24.66246 l 11.37277,11.24792 5.50223,-5.48517 c 3.02623,-3.01684 5.50122,-5.714 5.5,-5.99369 -0.001,-0.2797 -10.96998,-11.30155 -24.375,-24.49302 -13.40503,-13.19147 -24.56773,-24.29958 -24.80601,-24.68468 -0.31747,-0.51309 1.28387,-2.42112 5.99279,-7.1405 3.53431,-3.54219 6.72047,-6.44033 7.08035,-6.44033 0.35988,0 11.79177,11.06964 25.40419,24.59921 l 24.74986,24.59921 12.10678,-12.09921 C 206.30946,392.44464 211.9914,387 212.27727,387 c 0.28588,0 1.40919,0.91954 2.49625,2.04343 1.08707,1.12389 12.28284,12.18872 24.87952,24.58852 l 22.90303,22.5451 5.47197,-5.455 c 3.00958,-3.00024 5.47096,-5.68384 5.46973,-5.96353 -10e-4,-0.27969 -10.96998,-11.30154 -24.375,-24.49301 -13.40502,-13.19147 -24.56773,-24.29958 -24.80601,-24.68468 -0.31747,-0.51309 1.28388,-2.42112 5.99279,-7.14051 3.53431,-3.54218 6.72047,-6.44032 7.08035,-6.44032 0.35988,0 11.78665,11.06457 25.39283,24.58791 l 24.7385,24.58792 6.06016,-5.96292 c 3.42696,-3.37196 6.15509,-5.69451 6.27862,-5.3452 0.12015,0.33974 -0.22886,1.23974 -0.77559,2 C 297.53163,404.02695 288.21199,413 287.52215,413 c -0.33987,0 -11.72371,-11.05447 -25.29744,-24.56548 l -24.6795,-24.56549 -2.3976,2.02729 c -4.31851,3.65152 -8.75103,8.45087 -8.57129,9.28064 0.0955,0.441 11.08618,11.53798 24.42368,24.65995 13.3375,13.12197 24.32273,24.15166 24.41163,24.51042 C 275.61673,425.17509 263.52676,438 262.54132,438 c -0.40324,0 -11.68563,-10.9125 -25.07199,-24.25 -13.38636,-13.3375 -24.65124,-24.25 -25.03307,-24.25 -0.38183,0 -5.97815,5.2875 -12.43626,11.75 -6.45811,6.4625 -12.04662,11.75 -12.41891,11.75 -0.37228,0 -11.78266,-11.05447 -25.35638,-24.56548 l -24.6795,-24.56549 -2.3976,2.02729 c -4.31851,3.65152 -8.75103,8.45087 -8.57129,9.28064 0.0955,0.441 11.08618,11.53798 24.42368,24.65995 13.3375,13.12197 24.32273,24.15166 24.41163,24.51042 C 175.62077,425.19142 163.51681,438 162.51001,438 c -0.42046,0 -10.21347,-9.46457 -21.76224,-21.03239 -11.54878,-11.56781 -22.7382,-22.61365 -24.86539,-24.54632 l -3.86762,-3.51392 -12.01394,11.67131 c -6.607665,6.41922 -12.35577,11.74547 -12.773565,11.8361 -0.45758,0.0993 -10.48524,-9.52012 -25.218905,-24.1921 l -24.459277,-24.35688 -2.399537,2.02891 c -4.335139,3.66554 -8.753046,8.45188 -8.573221,9.28817 0.09553,0.44426 11.086185,11.54073 24.423685,24.65884 13.3375,13.11811 24.32273,24.14514 24.411625,24.5045 0.20999,0.84891 -11.89954,13.65698 -12.89938,13.64349 -0.419235,-0.006 -11.852775,-11.06577 -25.407871,-24.57803 z M 81.061415,381.7747 C 77.45264,378.21329 74.5,375.04314 74.5,374.72993 74.5,374.41672 85.4125,363.06326 98.75,349.5 112.0875,335.93675 123,324.58087 123,324.26472 123,323.57444 112.85406,313.5 112.15889,313.5 c -0.26735,0 -11.34552,11.025 -24.61817,24.5 -13.27265,13.475 -24.365475,24.5 -24.65072,24.5 -0.28525,0 -5.50034,-4.78125 -11.5891,-10.625 -6.088757,-5.84375 -11.691493,-11.17674 -12.450524,-11.8511 L 37.47032,338.7978 18.925905,357.2739 C 8.619314,367.54252 0.27932739,375.4756 0.15150811,375.13229 c -0.12649028,-0.33974 0.22170569,-1.23975 0.77376879,-2 1.8991713,-2.6154 35.8585631,-36.13227 36.5912851,-36.11448 0.403391,0.01 6.238853,5.28096 12.967693,11.7137 7.276,6.95583 12.46864,11.55862 12.81258,11.35719 0.31808,-0.18628 11.19501,-11.1387 24.17096,-24.3387 12.975945,-13.2 23.972785,-24.06284 24.437415,-24.13964 0.52394,-0.0866 3.30695,2.33082 7.32769,6.3651 l 6.4829,6.50473 -10.73078,10.8849 c -5.90192,5.9867 -17.02521,17.24385 -24.718405,25.01589 l -13.987625,14.13099 5.485505,5.50523 c 3.01703,3.02787 5.744585,5.44393 6.06124,5.36901 C 88.14239,385.31129 99.13538,374.3375 112.2546,361 c 13.7591,-13.98803 24.22984,-24.25 24.74333,-24.25 0.48961,0 6.55664,5.49492 13.4823,12.21093 l 12.59209,12.21093 5.13757,-5.21093 c 2.82566,-2.86601 13.66404,-13.87343 24.08527,-24.46093 10.42123,-10.5875 19.25741,-19.44496 19.63594,-19.68324 0.50033,-0.31495 2.44678,1.32138 7.12857,5.99278 3.54218,3.53432 6.44033,6.65685 6.44033,6.93895 0,0.28211 -10.9266,11.60408 -24.28133,25.15993 -13.35472,13.55586 -24.21097,24.92678 -24.125,25.26873 0.086,0.34194 2.59209,2.96187 5.56913,5.82208 l 5.4128,5.20036 7.82865,-7.9748 C 221.16344,352.49405 236.78381,337 237.46514,337 c 0.42754,0 6.23411,5.45335 12.90348,12.11854 l 12.12612,12.11855 18.39331,-18.36855 C 291.00438,332.76585 299.44306,324.5 299.64069,324.5 c 1.62915,0 -2.05246,4.11031 -18.00034,20.09638 C 271.54254,354.71837 262.93453,363 262.51144,363 c -0.42309,0 -6.16749,-5.40433 -12.76535,-12.00963 -6.59785,-6.60529 -12.27257,-11.94904 -12.61048,-11.875 -0.33791,0.074 -11.3517,11.04713 -24.47507,24.38463 -13.12338,13.3375 -24.20941,24.31283 -24.63562,24.38963 -0.44146,0.0795 -3.56919,-2.66403 -7.26838,-6.37567 l -6.49346,-6.51532 7.74904,-7.87432 c 4.26197,-4.33087 15.34028,-15.5383 24.61846,-24.90537 C 215.90876,332.85187 223.5,324.95545 223.5,324.67136 223.5,323.90857 213.17786,314 212.38323,314 c -0.37364,0 -3.81561,3.20625 -7.64881,7.125 C 184.55743,341.75227 163.29883,363 162.83801,363 162.55012,363 156.77302,357.4875 150,350.75 c -6.77302,-6.7375 -12.52506,-12.25361 -12.78229,-12.25802 -0.25724,-0.004 -11.52132,11.18933 -25.0313,24.875 L 87.622835,388.25 81.061415,381.7747 Z M 281.0208,381.7514 c -3.58644,-3.54862 -6.5208,-6.67741 -6.5208,-6.95285 0,-0.58884 23.33988,-24.14354 24.625,-24.85165 0.67896,-0.37412 0.875,-0.29207 0.875,0.36619 0,0.46658 -5.175,6.05357 -11.5,12.41552 -6.325,6.36195 -11.5,11.80715 -11.5,12.10045 0,0.56805 9.6983,10.29652 10.56874,10.60161 0.28359,0.0994 3.11631,-2.3756 6.29494,-5.5 3.72332,-3.6598 5.86484,-5.4368 6.01971,-4.99506 0.14133,0.40313 -2.35187,3.27791 -6.0507,6.97675 l -6.29109,6.29108 -6.5208,-6.45204 z M 0,349.66838 c 0,-0.45738 5.337923,-6.19946 11.862051,-12.76017 l 11.862051,-11.92855 -5.600066,-5.60007 -5.600067,-5.60007 -5.9333195,5.86024 C 3.3273239,322.86289 0.509431,325.5 0.32866515,325.5 0.14789932,325.5 0,325.14359 0,324.70798 0,323.65922 11.436158,312 12.464859,312 13.480703,312 25.5,324.0058 25.5,325.02051 25.5,325.74825 1.0702973,350.5 0.35202479,350.5 0.15841115,350.5 0,350.12577 0,349.66838 Z M 43.116037,319.35952 C 32.877217,309.10725 24.5,300.55725 24.5,300.35952 c 0,-1.62681 4.078016,2.02063 19.852398,17.75631 l 18.160387,18.11583 5.610435,-5.61044 5.610435,-5.61043 L 61.61683,312.85696 C 54.952575,306.17236 49.5,300.54494 49.5,300.35157 49.5,300.15821 49.874608,300 50.33246,300 51.389355,300 75.5,323.93565 75.5,324.98488 75.5,325.98427 63.48329,338 62.483815,338 c -0.413455,0 -9.12896,-8.38822 -19.367778,-18.64048 z m 99.999993,0 c -10.23882,-10.25227 -18.61603,-18.80227 -18.61603,-19 0,-1.62681 4.07801,2.02063 19.8524,17.75631 l 18.16038,18.11583 5.61044,-5.61044 5.61043,-5.61043 -12.24182,-12.31751 c -6.82943,-6.87165 -11.96873,-12.41793 -11.62412,-12.54463 0.33974,-0.12492 1.23974,0.22356 2,0.77439 2.41627,1.75067 23.63229,23.34871 23.63229,24.05781 0,0.95712 -12.02886,13.01915 -12.98335,13.01915 -0.43152,0 -9.1618,-8.38822 -19.40062,-18.64048 z m 100,0 c -10.23882,-10.25227 -18.61603,-18.80227 -18.61603,-19 0,-1.62679 4.07766,2.02027 19.84952,17.75344 l 18.15752,18.11297 5.49648,-5.47944 c 3.02306,-3.01369 5.49648,-5.74626 5.49648,-6.07238 0,-0.32612 -5.27634,-5.70736 -11.7252,-11.9583 -6.44886,-6.25095 -11.8418,-11.66922 -11.98431,-12.04059 -0.14817,-0.38612 0.0693,-0.67522 0.50789,-0.67522 0.83334,0 24.84832,23.28506 25.11325,24.34994 C 275.62196,325.19542 263.51315,338 262.50328,338 c -0.42417,0 -9.14843,-8.38822 -19.38725,-18.64048 z M 81.13218,307.375 C 74.99362,301.33234 73.93478,300 75.271135,300 c 0.44347,0 3.37639,2.51137 6.51759,5.58082 l 5.711275,5.58082 5.711275,-5.58082 c 3.1412,-3.06945 6.07412,-5.58082 6.51759,-5.58082 0.616125,0 0.693915,0.20639 0.329775,0.875 C 99.27474,302.31435 88.206925,313 87.5,313 c -0.35945,0 -3.22497,-2.53125 -6.36782,-5.625 z m 99.4672,-0.54459 c -3.35466,-3.39327 -6.09938,-6.31827 -6.09938,-6.5 0,-1.26647 2.35722,0.43155 7.28872,5.25041 l 5.71128,5.58082 5.71127,-5.58082 c 4.9315,-4.81886 7.28873,-6.51688 7.28873,-5.25041 0,0.7274 -12.25364,12.66959 -13,12.66959 -0.44068,0 -3.54596,-2.77631 -6.90062,-6.16959 z m 100,0 c -3.35465,-3.39327 -6.09938,-6.31827 -6.09938,-6.5 0,-1.26647 2.35723,0.43155 7.28872,5.25041 l 5.71128,5.58082 5.71127,-5.58082 C 298.60459,300.3107 300,299.27498 300,300.54201 300,301.42931 288.4061,313 287.51702,313 c -0.45004,0 -3.56298,-2.77631 -6.91764,-6.16959 z"
         id="path83694"
         inkscape:connector-curvature="0" />
    </g>
  </g>
  <g
     id="g83706"
     transform="translate(0,-299.92613)">
    <g
       id="g83708"
       style="fill:#000000;fill-opacity:1">
      <path
         style="fill:#000000;fill-opacity:1"
         d="M 0,599.43364 C 0,598.61197 11.636288,587 12.45968,587 c 0.735382,0 11.788989,10.63778 12.59896,12.125 0.364139,0.66861 0.286355,0.875 -0.329773,0.875 -0.443475,0 -3.376391,-2.51137 -6.517592,-5.58082 L 12.5,588.83835 6.788725,594.41918 C 1.3668788,599.71718 0,600.72682 0,599.43364 Z M 36.667539,587.89763 C 29.975393,581.24132 24.5,575.4442 24.5,575.01512 24.5,574.01573 36.516708,562 37.516183,562 38.245021,562 75.5,598.91823 75.5,599.64048 c 0,1.62682 -4.078015,-2.02063 -19.8524,-17.75631 l -18.160387,-18.11583 -5.610435,5.61044 -5.610434,5.61043 12.116828,12.15383 C 45.047427,593.82764 50.5,599.45506 50.5,599.64843 c 0,1.52894 -3.297827,-1.27259 -13.832461,-11.7508 z M 100,599.69671 c 0,-0.47395 6.93188,-7.52224 10.13918,-10.30946 l 2.88918,-2.51077 5.77687,5.68677 c 6.19479,6.09816 7.26167,7.43675 5.9272,7.43675 -0.44152,0 -3.2254,-2.3625 -6.1864,-5.25 -2.961,-2.8875 -5.56921,-5.25 -5.79603,-5.25 -0.22682,0 -2.83503,2.3625 -5.79604,5.25 -4.6154,4.50084 -6.95396,6.16438 -6.95396,4.94671 z m 36.91838,-11.54865 C 130.36327,581.6295 125,575.97731 125,575.58766 125,574.72188 136.88214,562 137.69077,562 c 0.61337,0 37.80923,37.02985 37.80923,37.64048 0,1.62582 -4.06323,-2.00588 -19.73385,-17.63805 l -18.04183,-17.99757 -4.25222,4.37257 c -2.33873,2.40492 -4.79616,4.9969 -5.46097,5.75997 l -1.20875,1.38741 11.84881,11.8865 c 6.51684,6.53757 11.84881,12.04449 11.84881,12.23759 0,1.52314 -3.26436,-1.24109 -13.58162,-11.50083 z M 199.94136,599.125 C 200.59515,597.92455 211.73511,587 212.30544,587 c 0.25244,0 3.3775,2.925 6.94456,6.5 7.96607,7.98379 7.26686,8.96553 -0.89027,1.25 -3.05277,-2.8875 -5.76911,-5.25 -6.03631,-5.25 -0.26719,0 -2.90845,2.3625 -5.86946,5.25 -2.961,2.8875 -5.74488,5.25 -6.18639,5.25 -0.61274,0 -0.68995,-0.20712 -0.32621,-0.875 z m 36.87083,-11 c -6.6342,-6.53125 -12.25715,-12.18311 -12.49543,-12.55967 -0.31418,-0.49652 1.33275,-2.45461 5.99278,-7.125 3.53432,-3.54219 6.67209,-6.44033 6.97283,-6.44033 0.65449,0 37.02444,35.70477 37.74898,37.05859 0.40299,0.75298 0.33098,0.94141 -0.35977,0.94141 -0.47497,0 -9.02771,-8.14409 -19.00608,-18.09797 l -18.14248,-18.09797 -1.38651,1.20814 c -4.21931,3.67652 -9.63651,9.32718 -9.63651,10.0518 0,0.45984 5.19432,5.85946 11.54294,11.99915 C 249.84093,598.47287 251.21755,600 249.70478,600 c -0.45671,0 -6.25838,-5.34375 -12.89259,-11.875 z M 81.061415,581.77471 C 77.45264,578.21329 74.5,575.04314 74.5,574.72994 74.5,574.41673 85.4125,563.06326 98.75,549.5 112.0875,535.93674 123,524.58087 123,524.26472 123,523.57444 112.85406,513.5 112.15889,513.5 c -0.26735,0 -11.34552,11.025 -24.61817,24.5 -13.27265,13.475 -24.365475,24.5 -24.65072,24.5 -0.28525,0 -5.50034,-4.78125 -11.5891,-10.625 -6.088757,-5.84375 -11.691493,-11.17674 -12.450524,-11.8511 L 37.47032,538.79781 19.094473,557.1489 C 8.987758,567.24201 0.5569362,575.5 0.35931367,575.5 c -1.62915387,0 2.05245053,-4.11031 18.00033733,-20.09639 10.097809,-10.12199 18.704059,-18.3956 19.125,-18.3858 0.420942,0.01 6.270764,5.28096 12.999604,11.7137 7.276,6.95582 12.46864,11.55862 12.81258,11.35719 0.31808,-0.18628 11.19501,-11.1387 24.17096,-24.3387 12.975945,-13.2 23.972785,-24.06283 24.437415,-24.13964 0.52394,-0.0866 3.30695,2.33082 7.32769,6.36509 l 6.4829,6.50473 -10.73078,10.88491 c -5.90192,5.9867 -17.02521,17.24386 -24.718405,25.01589 l -13.987625,14.13099 5.485505,5.50523 c 3.01703,3.02787 5.744585,5.44393 6.06124,5.36901 C 88.14239,585.31129 99.13114,574.3375 112.24518,561 c 13.11403,-13.3375 24.18581,-24.32749 24.60395,-24.4222 0.45669,-0.10343 5.70857,4.76165 13.15291,12.18422 6.81596,6.79603 12.63617,12.27351 12.93379,12.17219 0.29762,-0.10132 11.27796,-11.09671 24.40076,-24.43421 13.12279,-13.3375 24.17983,-24.44496 24.57119,-24.68324 0.52531,-0.31984 2.39741,1.24885 7.15189,5.99278 3.54218,3.53432 6.44033,6.65684 6.44033,6.93895 0,0.28211 -10.9266,11.60408 -24.28133,25.15993 -13.35472,13.55586 -24.21097,24.92678 -24.125,25.26873 0.086,0.34194 2.59209,2.96187 5.56913,5.82208 l 5.4128,5.20036 7.82865,-7.9748 C 220.6505,553.01657 236.77587,537 237.40908,537 c 0.39672,0 4.19408,3.31875 8.43859,7.375 4.24452,4.05625 9.85417,9.37585 12.46589,11.82133 l 4.74859,4.44632 18.28065,-18.19632 c 10.12488,-10.07819 18.38215,-17.92075 18.50816,-17.57862 0.12513,0.33974 -0.2277,1.257 -0.78408,2.03836 -1.44841,2.0341 -35.51888,35.59393 -36.13553,35.59393 -0.2826,0 -6.03226,-5.29928 -12.77701,-11.77618 -6.74476,-6.4769 -12.57143,-11.70815 -12.94816,-11.625 -0.37672,0.0831 -11.42227,11.06368 -24.54564,24.40118 -13.12338,13.3375 -24.20941,24.31283 -24.63562,24.38963 -0.44146,0.0796 -3.56919,-2.66403 -7.26838,-6.37567 l -6.49346,-6.51532 7.74904,-7.87432 c 4.26197,-4.33087 15.34028,-15.53829 24.61846,-24.90537 9.27818,-9.36709 16.86942,-17.26349 16.86942,-17.54759 0,-0.89437 -10.47444,-10.75055 -11.24578,-10.58199 -0.40431,0.0883 -11.36362,10.96063 -24.35403,24.16063 -12.99041,13.2 -24.04432,24.31124 -24.56425,24.69166 -0.87156,0.63769 -1.93712,-0.29869 -13.65542,-12 L 136.97043,538.25 l -24.67379,25 -24.673805,25 -6.56142,-6.47529 z M 280.55681,581.5604 c -3.33124,-3.54178 -6.05681,-6.6415 -6.05681,-6.88828 0,-0.73939 24.9529,-25.38588 25.32488,-25.01391 0.7746,0.7746 -1.51739,3.35782 -11.68124,13.16553 -5.87147,5.66573 -10.91105,10.74167 -11.19909,11.27986 -0.45591,0.85189 0.19039,1.70057 4.99387,6.5576 l 5.51757,5.57907 5.94334,-5.87013 c 3.26883,-3.22858 6.09124,-5.87014 6.272,-5.87014 0.18077,0 0.32867,0.3564 0.32867,0.79201 C 300,576.37833 288.54517,588 287.47445,588 c -0.47345,0 -3.58639,-2.89782 -6.91764,-6.4396 z M 0,549.66838 c 0,-0.45738 5.337923,-6.19946 11.862051,-12.76016 l 11.862051,-11.92856 -5.600066,-5.60007 -5.600067,-5.60006 -5.9333195,5.86023 C 3.3273239,522.86289 0.509431,525.5 0.32866515,525.5 0.14789932,525.5 0,525.14359 0,524.70798 0,523.65922 11.436158,512 12.464859,512 13.480703,512 25.5,524.0058 25.5,525.02051 25.5,525.74825 1.0702973,550.5 0.35202479,550.5 0.15841115,550.5 0,550.12577 0,549.66838 Z M 37.441231,513.74097 C 24.071407,500.40844 12.817186,489.5 12.43185,489.5 c -0.385336,0 -2.9463905,2.26517 -5.691231,5.03373 C 1.28728,500.03417 0,501.02698 0,499.73243 c 0,-0.84326 10.067225,-11.4632 11.692725,-12.33468 0.815166,-0.43704 2.74332,1.27784 14.25,12.67378 7.319002,7.24856 18.537521,18.3512 24.930045,24.67253 l 11.62277,11.49333 5.50223,-5.48517 c 3.026225,-3.01684 5.501225,-5.714 5.5,-5.9937 -0.001,-0.27969 -10.96998,-11.30154 -24.375001,-24.49301 -13.405023,-13.19147 -24.567728,-24.29958 -24.80601,-24.68468 -0.317474,-0.51309 1.283877,-2.42112 5.992785,-7.1405 C 33.843859,464.89814 37.03002,462 37.389901,462 c 0.359881,0 11.789581,11.06747 25.399334,24.59438 L 87.53424,511.18876 99.66555,499.09438 C 106.33777,492.44247 112.0219,487 112.29695,487 c 0.27506,0 1.38951,0.91954 2.47657,2.04343 1.08706,1.12389 12.28285,12.18872 24.87951,24.58852 l 22.90304,22.5451 5.47196,-5.455 c 3.00958,-3.00025 5.47096,-5.68383 5.46974,-5.96353 -0.001,-0.27969 -10.96998,-11.30154 -24.375,-24.49301 -13.40503,-13.19147 -24.56773,-24.29958 -24.80601,-24.68468 -0.31747,-0.51309 1.28387,-2.42112 5.99279,-7.14051 3.53431,-3.54218 6.72047,-6.44032 7.08035,-6.44032 0.35988,0 11.79177,11.06965 25.40419,24.59921 l 24.74986,24.59921 12.10678,-12.09921 C 206.30946,492.44465 211.9914,487 212.27727,487 c 0.28588,0 1.40919,0.91954 2.49625,2.04343 1.08707,1.12389 12.28284,12.18872 24.87952,24.58852 l 22.90303,22.5451 5.47197,-5.455 c 3.00958,-3.00025 5.47096,-5.68383 5.46973,-5.96353 -10e-4,-0.27969 -10.96998,-11.30154 -24.375,-24.49301 -13.40502,-13.19147 -24.56773,-24.29958 -24.80601,-24.68468 -0.31747,-0.51309 1.28388,-2.42112 5.99279,-7.14051 3.53431,-3.54218 6.71379,-6.44032 7.06551,-6.44032 0.35172,0 11.67873,10.9125 25.17112,24.25 13.4924,13.3375 24.79959,24.25 25.12711,24.25 0.32751,0 2.84125,-2.26518 5.58609,-5.03373 5.4618,-5.50897 6.74062,-6.49397 6.74062,-5.19185 0,1.03033 -11.49136,12.80898 -12.31033,12.61808 -0.33624,-0.0784 -11.76574,-11.13282 -25.39889,-24.56542 l -24.78753,-24.42292 -2.37663,2.00973 c -4.30039,3.63651 -8.72967,8.43503 -8.55031,9.26307 0.0955,0.441 11.08619,11.53797 24.42369,24.65995 13.3375,13.12197 24.32273,24.15167 24.41163,24.51042 C 275.61625,525.17316 263.52794,538 262.54503,538 262.14384,538 250.705,526.93503 237.1254,513.4112 L 212.43522,488.82239 200.33886,500.9112 C 193.68586,507.56003 187.94138,513 187.57335,513 c -0.36803,0 -11.77492,-11.05447 -25.34864,-24.56548 l -24.6795,-24.56549 -2.39761,2.0273 c -4.31851,3.65151 -8.75102,8.45086 -8.57129,9.28063 0.0955,0.441 11.08619,11.53797 24.42369,24.65995 13.3375,13.12197 24.32273,24.15167 24.41163,24.51042 C 175.61673,525.1751 163.52676,538 162.54132,538 162.13808,538 150.85569,527.0875 137.46933,513.75 124.08298,500.4125 112.8181,489.5 112.43626,489.5 112.05443,489.5 106.45811,494.7875 100,501.25 93.54189,507.7125 87.940355,513 87.552145,513 87.163935,513 75.84728,502.03125 62.40402,488.625 48.960763,475.21875 37.773981,464.18455 37.544505,464.10455 c -0.229476,-0.08 -2.819509,2.14814 -5.755629,4.95142 -3.584582,3.4224 -5.289197,5.39699 -5.188637,6.01042 0.08237,0.50245 11.062261,11.64944 24.399761,24.7711 13.3375,13.12166 24.32273,24.15109 24.411625,24.50984 0.20997,0.84738 -11.899445,13.65549 -12.89938,13.64364 -0.419235,-0.005 -11.70119,-10.91745 -25.071014,-24.25 z m 43.315309,-32.22701 -6.493465,-6.51532 7.74904,-7.87432 c 4.26197,-4.33087 15.34028,-15.5383 24.618465,-24.90537 C 115.90876,432.85186 123.5,424.95546 123.5,424.67136 123.5,423.90857 113.17786,414 112.38323,414 c -0.37364,0 -3.81561,3.20625 -7.64881,7.125 C 84.42199,441.89073 63.29723,463 62.828695,463 c -0.29301,0 -6.128765,-5.56875 -12.968344,-12.375 l -12.4356,-12.375 -18.43073,18.625 C 8.8571195,467.11875 0.43655048,475.5 0.28164547,475.5 c -1.43069947,0 2.24040823,-4.1096 17.99672153,-20.14633 10.053101,-10.23202 18.635036,-18.68257 19.070963,-18.779 0.497198,-0.10998 5.416807,4.44611 13.19998,12.22461 l 12.407385,12.39994 5.204575,-5.22461 C 71.023785,453.10108 81.888175,442.0875 92.304355,431.5 c 10.416175,-10.5875 19.248215,-19.44496 19.626755,-19.68324 0.50032,-0.31494 2.44677,1.32138 7.12857,5.99279 3.54218,3.53431 6.44032,6.65683 6.44032,6.93894 0,0.28211 -10.9266,11.60408 -24.28132,25.15993 -13.35473,13.55586 -24.21098,24.92678 -24.125005,25.26873 0.08598,0.34194 2.592085,2.96187 5.56913,5.82208 l 5.4128,5.20036 7.828645,-7.9748 c 25.44487,-25.91988 40.88039,-41.22258 41.56464,-41.20698 0.42961,0.01 6.28652,5.28096 13.01536,11.7137 7.276,6.95582 12.46864,11.55862 12.81258,11.35719 0.31808,-0.18628 11.19501,-11.1387 24.17096,-24.3387 12.97595,-13.2 23.97279,-24.06284 24.43742,-24.13964 0.52394,-0.0866 3.30695,2.33081 7.32769,6.36509 l 6.4829,6.50473 -10.73078,10.88491 c -5.90193,5.9867 -17.02521,17.24385 -24.71841,25.01589 l -13.98762,14.13099 5.4855,5.50523 c 3.01703,3.02787 5.74459,5.44393 6.06124,5.36901 0.31666,-0.0749 11.30609,-11.04871 24.42096,-24.38621 14.61673,-14.86486 24.26282,-24.30433 24.92426,-24.39037 0.82612,-0.10747 3.8909,2.676 13.07514,11.875 6.59786,6.60845 12.22406,12.01537 12.50268,12.01537 0.27862,0 8.38038,-7.88897 18.00391,-17.53106 9.62353,-9.64208 17.89107,-17.74999 18.37232,-18.01759 0.68333,-0.37996 0.875,-0.29744 0.875,0.37668 0,0.84812 -34.8615,36.25636 -36.67991,37.25516 -0.80206,0.44054 -2.62554,-1.17991 -13.26296,-11.78621 -6.78318,-6.76334 -12.55222,-12.30059 -12.82009,-12.305 -0.26787,-0.005 -11.54065,11.18934 -25.05063,24.875 L 187.62283,488.25 181.06141,481.77471 C 177.45264,478.21329 174.5,475.04314 174.5,474.72993 174.5,474.41673 185.4125,463.06326 198.75,449.5 212.0875,435.93674 223,424.58087 223,424.26472 223,423.57444 212.85406,413.5 212.15889,413.5 c -0.26735,0 -11.34553,11.025 -24.61817,24.5 -13.27265,13.475 -24.35508,24.5 -24.62764,24.5 -0.27255,0 -6.01398,-5.29928 -12.75874,-11.77618 -6.74475,-6.4769 -12.57142,-11.70815 -12.94815,-11.625 -0.37673,0.0831 -11.42227,11.06368 -24.54565,24.40118 -13.12338,13.3375 -24.209405,24.31283 -24.635615,24.38963 -0.44146,0.0796 -3.56919,-2.66403 -7.268385,-6.37567 z m 200.35303,0.43967 c -3.49776,-3.3255 -6.43846,-6.39487 -6.53487,-6.82084 -0.16818,-0.743 22.60342,-24.10046 24.5503,-25.18192 0.68066,-0.3781 0.875,-0.29745 0.875,0.36316 0,0.46706 -5.34375,6.23098 -11.875,12.8087 l -11.875,11.9595 5.5,5.19269 c 3.025,2.85597 5.72922,5.19997 6.00938,5.20888 0.28016,0.009 2.75516,-2.24898 5.5,-5.01753 C 298.72118,474.9573 300,473.9723 300,475.27442 300,476.10133 288.68833,488 287.90221,488 c -0.23818,0 -3.29487,-2.72087 -6.79264,-6.04637 z M 0,449.66838 C 0,449.211 5.3198425,443.4871 11.821872,436.94862 l 11.821871,-11.88815 -2.03418,-2.40524 c -1.118799,-1.32288 -3.628971,-3.97701 -5.57816,-5.89806 l -3.543979,-3.49283 -6.033359,6.11783 C 3.1357182,422.74698 0.32604795,425.5 0.21035352,425.5 0.09465908,425.5 0,425.14222 0,424.70494 0,423.78167 11.873758,411.5 12.766357,411.5 13.579082,411.5 25.5,424.21966 25.5,425.08684 25.5,425.77044 1.0284949,450.5 0.35202479,450.5 0.15841115,450.5 0,450.12577 0,449.66838 Z M 37.104374,413.41168 12.45875,388.84394 6.55804,394.67197 C 3.3126496,397.87738 0.509431,400.5 0.32866515,400.5 0.14789932,400.5 0,400.14359 0,399.70798 0,398.80691 11.363635,387 12.230883,387 c 0.311393,0 1.455583,0.91954 2.542643,2.04343 1.087061,1.12389 12.28284,12.18872 24.87951,24.58852 l 22.903034,22.5451 5.471965,-5.455 c 3.00958,-3.00024 5.47096,-5.68384 5.469735,-5.96353 -0.001,-0.27969 -10.96998,-11.30154 -24.375001,-24.49301 -13.405023,-13.19147 -24.567728,-24.29958 -24.80601,-24.68468 -0.317474,-0.51309 1.283877,-2.42112 5.992785,-7.14051 C 33.843859,364.89814 37.029592,362 37.388951,362 c 0.359359,0 11.633997,10.9125 25.054749,24.25 13.420755,13.3375 24.6069,24.25 24.8581,24.25 0.251195,0 5.404805,-4.96502 11.45246,-11.03337 6.04766,-6.06836 11.6414,-11.37555 12.43054,-11.79377 l 1.4348,-0.76039 13.5652,13.41454 c 7.46086,7.378 18.68294,18.4761 24.93797,24.66246 l 11.37277,11.24792 5.50223,-5.48517 c 3.02623,-3.01684 5.50122,-5.714 5.5,-5.99369 -0.001,-0.2797 -10.96998,-11.30155 -24.375,-24.49302 -13.40503,-13.19147 -24.56773,-24.29958 -24.80601,-24.68468 -0.31747,-0.51309 1.28387,-2.42112 5.99279,-7.1405 3.53431,-3.54219 6.72047,-6.44033 7.08035,-6.44033 0.35988,0 11.79177,11.06964 25.40419,24.59921 l 24.74986,24.59921 12.10678,-12.09921 C 206.30946,392.44464 211.9914,387 212.27727,387 c 0.28588,0 1.40919,0.91954 2.49625,2.04343 1.08707,1.12389 12.28284,12.18872 24.87952,24.58852 l 22.90303,22.5451 5.47197,-5.455 c 3.00958,-3.00024 5.47096,-5.68384 5.46973,-5.96353 -10e-4,-0.27969 -10.96998,-11.30154 -24.375,-24.49301 -13.40502,-13.19147 -24.56773,-24.29958 -24.80601,-24.68468 -0.31747,-0.51309 1.28388,-2.42112 5.99279,-7.14051 3.53431,-3.54218 6.72047,-6.44032 7.08035,-6.44032 0.35988,0 11.78665,11.06457 25.39283,24.58791 l 24.7385,24.58792 6.06016,-5.96292 c 3.42696,-3.37196 6.15509,-5.69451 6.27862,-5.3452 0.12015,0.33974 -0.22886,1.23974 -0.77559,2 C 297.53163,404.02695 288.21199,413 287.52215,413 c -0.33987,0 -11.72371,-11.05447 -25.29744,-24.56548 l -24.6795,-24.56549 -2.3976,2.02729 c -4.31851,3.65152 -8.75103,8.45087 -8.57129,9.28064 0.0955,0.441 11.08618,11.53798 24.42368,24.65995 13.3375,13.12197 24.32273,24.15166 24.41163,24.51042 C 275.61673,425.17509 263.52676,438 262.54132,438 c -0.40324,0 -11.68563,-10.9125 -25.07199,-24.25 -13.38636,-13.3375 -24.65124,-24.25 -25.03307,-24.25 -0.38183,0 -5.97815,5.2875 -12.43626,11.75 -6.45811,6.4625 -12.04662,11.75 -12.41891,11.75 -0.37228,0 -11.78266,-11.05447 -25.35638,-24.56548 l -24.6795,-24.56549 -2.3976,2.02729 c -4.31851,3.65152 -8.75103,8.45087 -8.57129,9.28064 0.0955,0.441 11.08618,11.53798 24.42368,24.65995 13.3375,13.12197 24.32273,24.15166 24.41163,24.51042 C 175.62077,425.19142 163.51681,438 162.51001,438 c -0.42046,0 -10.21347,-9.46457 -21.76224,-21.03239 -11.54878,-11.56781 -22.7382,-22.61365 -24.86539,-24.54632 l -3.86762,-3.51392 -12.01394,11.67131 c -6.607665,6.41922 -12.35577,11.74547 -12.773565,11.8361 -0.45758,0.0993 -10.48524,-9.52012 -25.218905,-24.1921 l -24.459277,-24.35688 -2.399537,2.02891 c -4.335139,3.66554 -8.753046,8.45188 -8.573221,9.28817 0.09553,0.44426 11.086185,11.54073 24.423685,24.65884 13.3375,13.11811 24.32273,24.14514 24.411625,24.5045 0.20999,0.84891 -11.89954,13.65698 -12.89938,13.64349 -0.419235,-0.006 -11.852775,-11.06577 -25.407871,-24.57803 z M 81.061415,381.7747 C 77.45264,378.21329 74.5,375.04314 74.5,374.72993 74.5,374.41672 85.4125,363.06326 98.75,349.5 112.0875,335.93675 123,324.58087 123,324.26472 123,323.57444 112.85406,313.5 112.15889,313.5 c -0.26735,0 -11.34552,11.025 -24.61817,24.5 -13.27265,13.475 -24.365475,24.5 -24.65072,24.5 -0.28525,0 -5.50034,-4.78125 -11.5891,-10.625 -6.088757,-5.84375 -11.691493,-11.17674 -12.450524,-11.8511 L 37.47032,338.7978 18.925905,357.2739 C 8.619314,367.54252 0.27932739,375.4756 0.15150811,375.13229 c -0.12649028,-0.33974 0.22170569,-1.23975 0.77376879,-2 1.8991713,-2.6154 35.8585631,-36.13227 36.5912851,-36.11448 0.403391,0.01 6.238853,5.28096 12.967693,11.7137 7.276,6.95583 12.46864,11.55862 12.81258,11.35719 0.31808,-0.18628 11.19501,-11.1387 24.17096,-24.3387 12.975945,-13.2 23.972785,-24.06284 24.437415,-24.13964 0.52394,-0.0866 3.30695,2.33082 7.32769,6.3651 l 6.4829,6.50473 -10.73078,10.8849 c -5.90192,5.9867 -17.02521,17.24385 -24.718405,25.01589 l -13.987625,14.13099 5.485505,5.50523 c 3.01703,3.02787 5.744585,5.44393 6.06124,5.36901 C 88.14239,385.31129 99.13538,374.3375 112.2546,361 c 13.7591,-13.98803 24.22984,-24.25 24.74333,-24.25 0.48961,0 6.55664,5.49492 13.4823,12.21093 l 12.59209,12.21093 5.13757,-5.21093 c 2.82566,-2.86601 13.66404,-13.87343 24.08527,-24.46093 10.42123,-10.5875 19.25741,-19.44496 19.63594,-19.68324 0.50033,-0.31495 2.44678,1.32138 7.12857,5.99278 3.54218,3.53432 6.44033,6.65685 6.44033,6.93895 0,0.28211 -10.9266,11.60408 -24.28133,25.15993 -13.35472,13.55586 -24.21097,24.92678 -24.125,25.26873 0.086,0.34194 2.59209,2.96187 5.56913,5.82208 l 5.4128,5.20036 7.82865,-7.9748 C 221.16344,352.49405 236.78381,337 237.46514,337 c 0.42754,0 6.23411,5.45335 12.90348,12.11854 l 12.12612,12.11855 18.39331,-18.36855 C 291.00438,332.76585 299.44306,324.5 299.64069,324.5 c 1.62915,0 -2.05246,4.11031 -18.00034,20.09638 C 271.54254,354.71837 262.93453,363 262.51144,363 c -0.42309,0 -6.16749,-5.40433 -12.76535,-12.00963 -6.59785,-6.60529 -12.27257,-11.94904 -12.61048,-11.875 -0.33791,0.074 -11.3517,11.04713 -24.47507,24.38463 -13.12338,13.3375 -24.20941,24.31283 -24.63562,24.38963 -0.44146,0.0795 -3.56919,-2.66403 -7.26838,-6.37567 l -6.49346,-6.51532 7.74904,-7.87432 c 4.26197,-4.33087 15.34028,-15.5383 24.61846,-24.90537 C 215.90876,332.85187 223.5,324.95545 223.5,324.67136 223.5,323.90857 213.17786,314 212.38323,314 c -0.37364,0 -3.81561,3.20625 -7.64881,7.125 C 184.55743,341.75227 163.29883,363 162.83801,363 162.55012,363 156.77302,357.4875 150,350.75 c -6.77302,-6.7375 -12.52506,-12.25361 -12.78229,-12.25802 -0.25724,-0.004 -11.52132,11.18933 -25.0313,24.875 L 87.622835,388.25 81.061415,381.7747 Z M 281.0208,381.7514 c -3.58644,-3.54862 -6.5208,-6.67741 -6.5208,-6.95285 0,-0.58884 23.33988,-24.14354 24.625,-24.85165 0.67896,-0.37412 0.875,-0.29207 0.875,0.36619 0,0.46658 -5.175,6.05357 -11.5,12.41552 -6.325,6.36195 -11.5,11.80715 -11.5,12.10045 0,0.56805 9.6983,10.29652 10.56874,10.60161 0.28359,0.0994 3.11631,-2.3756 6.29494,-5.5 3.72332,-3.6598 5.86484,-5.4368 6.01971,-4.99506 0.14133,0.40313 -2.35187,3.27791 -6.0507,6.97675 l -6.29109,6.29108 -6.5208,-6.45204 z M 0,349.66838 c 0,-0.45738 5.337923,-6.19946 11.862051,-12.76017 l 11.862051,-11.92855 -5.600066,-5.60007 -5.600067,-5.60007 -5.9333195,5.86024 C 3.3273239,322.86289 0.509431,325.5 0.32866515,325.5 0.14789932,325.5 0,325.14359 0,324.70798 0,323.65922 11.436158,312 12.464859,312 13.480703,312 25.5,324.0058 25.5,325.02051 25.5,325.74825 1.0702973,350.5 0.35202479,350.5 0.15841115,350.5 0,350.12577 0,349.66838 Z M 43.116037,319.35952 C 32.877217,309.10725 24.5,300.55725 24.5,300.35952 c 0,-1.62681 4.078016,2.02063 19.852398,17.75631 l 18.160387,18.11583 5.610435,-5.61044 5.610435,-5.61043 L 61.61683,312.85696 C 54.952575,306.17236 49.5,300.54494 49.5,300.35157 49.5,300.15821 49.874608,300 50.33246,300 51.389355,300 75.5,323.93565 75.5,324.98488 75.5,325.98427 63.48329,338 62.483815,338 c -0.413455,0 -9.12896,-8.38822 -19.367778,-18.64048 z m 99.999993,0 c -10.23882,-10.25227 -18.61603,-18.80227 -18.61603,-19 0,-1.62681 4.07801,2.02063 19.8524,17.75631 l 18.16038,18.11583 5.61044,-5.61044 5.61043,-5.61043 -12.24182,-12.31751 c -6.82943,-6.87165 -11.96873,-12.41793 -11.62412,-12.54463 0.33974,-0.12492 1.23974,0.22356 2,0.77439 2.41627,1.75067 23.63229,23.34871 23.63229,24.05781 0,0.95712 -12.02886,13.01915 -12.98335,13.01915 -0.43152,0 -9.1618,-8.38822 -19.40062,-18.64048 z m 100,0 c -10.23882,-10.25227 -18.61603,-18.80227 -18.61603,-19 0,-1.62679 4.07766,2.02027 19.84952,17.75344 l 18.15752,18.11297 5.49648,-5.47944 c 3.02306,-3.01369 5.49648,-5.74626 5.49648,-6.07238 0,-0.32612 -5.27634,-5.70736 -11.7252,-11.9583 -6.44886,-6.25095 -11.8418,-11.66922 -11.98431,-12.04059 -0.14817,-0.38612 0.0693,-0.67522 0.50789,-0.67522 0.83334,0 24.84832,23.28506 25.11325,24.34994 C 275.62196,325.19542 263.51315,338 262.50328,338 c -0.42417,0 -9.14843,-8.38822 -19.38725,-18.64048 z M 81.13218,307.375 C 74.99362,301.33234 73.93478,300 75.271135,300 c 0.44347,0 3.37639,2.51137 6.51759,5.58082 l 5.711275,5.58082 5.711275,-5.58082 c 3.1412,-3.06945 6.07412,-5.58082 6.51759,-5.58082 0.616125,0 0.693915,0.20639 0.329775,0.875 C 99.27474,302.31435 88.206925,313 87.5,313 c -0.35945,0 -3.22497,-2.53125 -6.36782,-5.625 z m 99.4672,-0.54459 c -3.35466,-3.39327 -6.09938,-6.31827 -6.09938,-6.5 0,-1.26647 2.35722,0.43155 7.28872,5.25041 l 5.71128,5.58082 5.71127,-5.58082 c 4.9315,-4.81886 7.28873,-6.51688 7.28873,-5.25041 0,0.7274 -12.25364,12.66959 -13,12.66959 -0.44068,0 -3.54596,-2.77631 -6.90062,-6.16959 z m 100,0 c -3.35465,-3.39327 -6.09938,-6.31827 -6.09938,-6.5 0,-1.26647 2.35723,0.43155 7.28872,5.25041 l 5.71128,5.58082 5.71127,-5.58082 C 298.60459,300.3107 300,299.27498 300,300.54201 300,301.42931 288.4061,313 287.51702,313 c -0.45004,0 -3.56298,-2.77631 -6.91764,-6.16959 z"
         id="path83710"
         inkscape:connector-curvature="0" />
    </g>
    <g
       style="fill:#000000;fill-opacity:1"
       id="g83712"
       transform="translate(300,0)">
      <path
         inkscape:connector-curvature="0"
         id="path83714"
         d="M 0,599.43364 C 0,598.61197 11.636288,587 12.45968,587 c 0.735382,0 11.788989,10.63778 12.59896,12.125 0.364139,0.66861 0.286355,0.875 -0.329773,0.875 -0.443475,0 -3.376391,-2.51137 -6.517592,-5.58082 L 12.5,588.83835 6.788725,594.41918 C 1.3668788,599.71718 0,600.72682 0,599.43364 Z M 36.667539,587.89763 C 29.975393,581.24132 24.5,575.4442 24.5,575.01512 24.5,574.01573 36.516708,562 37.516183,562 38.245021,562 75.5,598.91823 75.5,599.64048 c 0,1.62682 -4.078015,-2.02063 -19.8524,-17.75631 l -18.160387,-18.11583 -5.610435,5.61044 -5.610434,5.61043 12.116828,12.15383 C 45.047427,593.82764 50.5,599.45506 50.5,599.64843 c 0,1.52894 -3.297827,-1.27259 -13.832461,-11.7508 z M 100,599.69671 c 0,-0.47395 6.93188,-7.52224 10.13918,-10.30946 l 2.88918,-2.51077 5.77687,5.68677 c 6.19479,6.09816 7.26167,7.43675 5.9272,7.43675 -0.44152,0 -3.2254,-2.3625 -6.1864,-5.25 -2.961,-2.8875 -5.56921,-5.25 -5.79603,-5.25 -0.22682,0 -2.83503,2.3625 -5.79604,5.25 -4.6154,4.50084 -6.95396,6.16438 -6.95396,4.94671 z m 36.91838,-11.54865 C 130.36327,581.6295 125,575.97731 125,575.58766 125,574.72188 136.88214,562 137.69077,562 c 0.61337,0 37.80923,37.02985 37.80923,37.64048 0,1.62582 -4.06323,-2.00588 -19.73385,-17.63805 l -18.04183,-17.99757 -4.25222,4.37257 c -2.33873,2.40492 -4.79616,4.9969 -5.46097,5.75997 l -1.20875,1.38741 11.84881,11.8865 c 6.51684,6.53757 11.84881,12.04449 11.84881,12.23759 0,1.52314 -3.26436,-1.24109 -13.58162,-11.50083 z M 199.94136,599.125 C 200.59515,597.92455 211.73511,587 212.30544,587 c 0.25244,0 3.3775,2.925 6.94456,6.5 7.96607,7.98379 7.26686,8.96553 -0.89027,1.25 -3.05277,-2.8875 -5.76911,-5.25 -6.03631,-5.25 -0.26719,0 -2.90845,2.3625 -5.86946,5.25 -2.961,2.8875 -5.74488,5.25 -6.18639,5.25 -0.61274,0 -0.68995,-0.20712 -0.32621,-0.875 z m 36.87083,-11 c -6.6342,-6.53125 -12.25715,-12.18311 -12.49543,-12.55967 -0.31418,-0.49652 1.33275,-2.45461 5.99278,-7.125 3.53432,-3.54219 6.67209,-6.44033 6.97283,-6.44033 0.65449,0 37.02444,35.70477 37.74898,37.05859 0.40299,0.75298 0.33098,0.94141 -0.35977,0.94141 -0.47497,0 -9.02771,-8.14409 -19.00608,-18.09797 l -18.14248,-18.09797 -1.38651,1.20814 c -4.21931,3.67652 -9.63651,9.32718 -9.63651,10.0518 0,0.45984 5.19432,5.85946 11.54294,11.99915 C 249.84093,598.47287 251.21755,600 249.70478,600 c -0.45671,0 -6.25838,-5.34375 -12.89259,-11.875 z M 81.061415,581.77471 C 77.45264,578.21329 74.5,575.04314 74.5,574.72994 74.5,574.41673 85.4125,563.06326 98.75,549.5 112.0875,535.93674 123,524.58087 123,524.26472 123,523.57444 112.85406,513.5 112.15889,513.5 c -0.26735,0 -11.34552,11.025 -24.61817,24.5 -13.27265,13.475 -24.365475,24.5 -24.65072,24.5 -0.28525,0 -5.50034,-4.78125 -11.5891,-10.625 -6.088757,-5.84375 -11.691493,-11.17674 -12.450524,-11.8511 L 37.47032,538.79781 19.094473,557.1489 C 8.987758,567.24201 0.5569362,575.5 0.35931367,575.5 c -1.62915387,0 2.05245053,-4.11031 18.00033733,-20.09639 10.097809,-10.12199 18.704059,-18.3956 19.125,-18.3858 0.420942,0.01 6.270764,5.28096 12.999604,11.7137 7.276,6.95582 12.46864,11.55862 12.81258,11.35719 0.31808,-0.18628 11.19501,-11.1387 24.17096,-24.3387 12.975945,-13.2 23.972785,-24.06283 24.437415,-24.13964 0.52394,-0.0866 3.30695,2.33082 7.32769,6.36509 l 6.4829,6.50473 -10.73078,10.88491 c -5.90192,5.9867 -17.02521,17.24386 -24.718405,25.01589 l -13.987625,14.13099 5.485505,5.50523 c 3.01703,3.02787 5.744585,5.44393 6.06124,5.36901 C 88.14239,585.31129 99.13114,574.3375 112.24518,561 c 13.11403,-13.3375 24.18581,-24.32749 24.60395,-24.4222 0.45669,-0.10343 5.70857,4.76165 13.15291,12.18422 6.81596,6.79603 12.63617,12.27351 12.93379,12.17219 0.29762,-0.10132 11.27796,-11.09671 24.40076,-24.43421 13.12279,-13.3375 24.17983,-24.44496 24.57119,-24.68324 0.52531,-0.31984 2.39741,1.24885 7.15189,5.99278 3.54218,3.53432 6.44033,6.65684 6.44033,6.93895 0,0.28211 -10.9266,11.60408 -24.28133,25.15993 -13.35472,13.55586 -24.21097,24.92678 -24.125,25.26873 0.086,0.34194 2.59209,2.96187 5.56913,5.82208 l 5.4128,5.20036 7.82865,-7.9748 C 220.6505,553.01657 236.77587,537 237.40908,537 c 0.39672,0 4.19408,3.31875 8.43859,7.375 4.24452,4.05625 9.85417,9.37585 12.46589,11.82133 l 4.74859,4.44632 18.28065,-18.19632 c 10.12488,-10.07819 18.38215,-17.92075 18.50816,-17.57862 0.12513,0.33974 -0.2277,1.257 -0.78408,2.03836 -1.44841,2.0341 -35.51888,35.59393 -36.13553,35.59393 -0.2826,0 -6.03226,-5.29928 -12.77701,-11.77618 -6.74476,-6.4769 -12.57143,-11.70815 -12.94816,-11.625 -0.37672,0.0831 -11.42227,11.06368 -24.54564,24.40118 -13.12338,13.3375 -24.20941,24.31283 -24.63562,24.38963 -0.44146,0.0796 -3.56919,-2.66403 -7.26838,-6.37567 l -6.49346,-6.51532 7.74904,-7.87432 c 4.26197,-4.33087 15.34028,-15.53829 24.61846,-24.90537 9.27818,-9.36709 16.86942,-17.26349 16.86942,-17.54759 0,-0.89437 -10.47444,-10.75055 -11.24578,-10.58199 -0.40431,0.0883 -11.36362,10.96063 -24.35403,24.16063 -12.99041,13.2 -24.04432,24.31124 -24.56425,24.69166 -0.87156,0.63769 -1.93712,-0.29869 -13.65542,-12 L 136.97043,538.25 l -24.67379,25 -24.673805,25 -6.56142,-6.47529 z M 280.55681,581.5604 c -3.33124,-3.54178 -6.05681,-6.6415 -6.05681,-6.88828 0,-0.73939 24.9529,-25.38588 25.32488,-25.01391 0.7746,0.7746 -1.51739,3.35782 -11.68124,13.16553 -5.87147,5.66573 -10.91105,10.74167 -11.19909,11.27986 -0.45591,0.85189 0.19039,1.70057 4.99387,6.5576 l 5.51757,5.57907 5.94334,-5.87013 c 3.26883,-3.22858 6.09124,-5.87014 6.272,-5.87014 0.18077,0 0.32867,0.3564 0.32867,0.79201 C 300,576.37833 288.54517,588 287.47445,588 c -0.47345,0 -3.58639,-2.89782 -6.91764,-6.4396 z M 0,549.66838 c 0,-0.45738 5.337923,-6.19946 11.862051,-12.76016 l 11.862051,-11.92856 -5.600066,-5.60007 -5.600067,-5.60006 -5.9333195,5.86023 C 3.3273239,522.86289 0.509431,525.5 0.32866515,525.5 0.14789932,525.5 0,525.14359 0,524.70798 0,523.65922 11.436158,512 12.464859,512 13.480703,512 25.5,524.0058 25.5,525.02051 25.5,525.74825 1.0702973,550.5 0.35202479,550.5 0.15841115,550.5 0,550.12577 0,549.66838 Z M 37.441231,513.74097 C 24.071407,500.40844 12.817186,489.5 12.43185,489.5 c -0.385336,0 -2.9463905,2.26517 -5.691231,5.03373 C 1.28728,500.03417 0,501.02698 0,499.73243 c 0,-0.84326 10.067225,-11.4632 11.692725,-12.33468 0.815166,-0.43704 2.74332,1.27784 14.25,12.67378 7.319002,7.24856 18.537521,18.3512 24.930045,24.67253 l 11.62277,11.49333 5.50223,-5.48517 c 3.026225,-3.01684 5.501225,-5.714 5.5,-5.9937 -0.001,-0.27969 -10.96998,-11.30154 -24.375001,-24.49301 -13.405023,-13.19147 -24.567728,-24.29958 -24.80601,-24.68468 -0.317474,-0.51309 1.283877,-2.42112 5.992785,-7.1405 C 33.843859,464.89814 37.03002,462 37.389901,462 c 0.359881,0 11.789581,11.06747 25.399334,24.59438 L 87.53424,511.18876 99.66555,499.09438 C 106.33777,492.44247 112.0219,487 112.29695,487 c 0.27506,0 1.38951,0.91954 2.47657,2.04343 1.08706,1.12389 12.28285,12.18872 24.87951,24.58852 l 22.90304,22.5451 5.47196,-5.455 c 3.00958,-3.00025 5.47096,-5.68383 5.46974,-5.96353 -0.001,-0.27969 -10.96998,-11.30154 -24.375,-24.49301 -13.40503,-13.19147 -24.56773,-24.29958 -24.80601,-24.68468 -0.31747,-0.51309 1.28387,-2.42112 5.99279,-7.14051 3.53431,-3.54218 6.72047,-6.44032 7.08035,-6.44032 0.35988,0 11.79177,11.06965 25.40419,24.59921 l 24.74986,24.59921 12.10678,-12.09921 C 206.30946,492.44465 211.9914,487 212.27727,487 c 0.28588,0 1.40919,0.91954 2.49625,2.04343 1.08707,1.12389 12.28284,12.18872 24.87952,24.58852 l 22.90303,22.5451 5.47197,-5.455 c 3.00958,-3.00025 5.47096,-5.68383 5.46973,-5.96353 -10e-4,-0.27969 -10.96998,-11.30154 -24.375,-24.49301 -13.40502,-13.19147 -24.56773,-24.29958 -24.80601,-24.68468 -0.31747,-0.51309 1.28388,-2.42112 5.99279,-7.14051 3.53431,-3.54218 6.71379,-6.44032 7.06551,-6.44032 0.35172,0 11.67873,10.9125 25.17112,24.25 13.4924,13.3375 24.79959,24.25 25.12711,24.25 0.32751,0 2.84125,-2.26518 5.58609,-5.03373 5.4618,-5.50897 6.74062,-6.49397 6.74062,-5.19185 0,1.03033 -11.49136,12.80898 -12.31033,12.61808 -0.33624,-0.0784 -11.76574,-11.13282 -25.39889,-24.56542 l -24.78753,-24.42292 -2.37663,2.00973 c -4.30039,3.63651 -8.72967,8.43503 -8.55031,9.26307 0.0955,0.441 11.08619,11.53797 24.42369,24.65995 13.3375,13.12197 24.32273,24.15167 24.41163,24.51042 C 275.61625,525.17316 263.52794,538 262.54503,538 262.14384,538 250.705,526.93503 237.1254,513.4112 L 212.43522,488.82239 200.33886,500.9112 C 193.68586,507.56003 187.94138,513 187.57335,513 c -0.36803,0 -11.77492,-11.05447 -25.34864,-24.56548 l -24.6795,-24.56549 -2.39761,2.0273 c -4.31851,3.65151 -8.75102,8.45086 -8.57129,9.28063 0.0955,0.441 11.08619,11.53797 24.42369,24.65995 13.3375,13.12197 24.32273,24.15167 24.41163,24.51042 C 175.61673,525.1751 163.52676,538 162.54132,538 162.13808,538 150.85569,527.0875 137.46933,513.75 124.08298,500.4125 112.8181,489.5 112.43626,489.5 112.05443,489.5 106.45811,494.7875 100,501.25 93.54189,507.7125 87.940355,513 87.552145,513 87.163935,513 75.84728,502.03125 62.40402,488.625 48.960763,475.21875 37.773981,464.18455 37.544505,464.10455 c -0.229476,-0.08 -2.819509,2.14814 -5.755629,4.95142 -3.584582,3.4224 -5.289197,5.39699 -5.188637,6.01042 0.08237,0.50245 11.062261,11.64944 24.399761,24.7711 13.3375,13.12166 24.32273,24.15109 24.411625,24.50984 0.20997,0.84738 -11.899445,13.65549 -12.89938,13.64364 -0.419235,-0.005 -11.70119,-10.91745 -25.071014,-24.25 z m 43.315309,-32.22701 -6.493465,-6.51532 7.74904,-7.87432 c 4.26197,-4.33087 15.34028,-15.5383 24.618465,-24.90537 C 115.90876,432.85186 123.5,424.95546 123.5,424.67136 123.5,423.90857 113.17786,414 112.38323,414 c -0.37364,0 -3.81561,3.20625 -7.64881,7.125 C 84.42199,441.89073 63.29723,463 62.828695,463 c -0.29301,0 -6.128765,-5.56875 -12.968344,-12.375 l -12.4356,-12.375 -18.43073,18.625 C 8.8571195,467.11875 0.43655048,475.5 0.28164547,475.5 c -1.43069947,0 2.24040823,-4.1096 17.99672153,-20.14633 10.053101,-10.23202 18.635036,-18.68257 19.070963,-18.779 0.497198,-0.10998 5.416807,4.44611 13.19998,12.22461 l 12.407385,12.39994 5.204575,-5.22461 C 71.023785,453.10108 81.888175,442.0875 92.304355,431.5 c 10.416175,-10.5875 19.248215,-19.44496 19.626755,-19.68324 0.50032,-0.31494 2.44677,1.32138 7.12857,5.99279 3.54218,3.53431 6.44032,6.65683 6.44032,6.93894 0,0.28211 -10.9266,11.60408 -24.28132,25.15993 -13.35473,13.55586 -24.21098,24.92678 -24.125005,25.26873 0.08598,0.34194 2.592085,2.96187 5.56913,5.82208 l 5.4128,5.20036 7.828645,-7.9748 c 25.44487,-25.91988 40.88039,-41.22258 41.56464,-41.20698 0.42961,0.01 6.28652,5.28096 13.01536,11.7137 7.276,6.95582 12.46864,11.55862 12.81258,11.35719 0.31808,-0.18628 11.19501,-11.1387 24.17096,-24.3387 12.97595,-13.2 23.97279,-24.06284 24.43742,-24.13964 0.52394,-0.0866 3.30695,2.33081 7.32769,6.36509 l 6.4829,6.50473 -10.73078,10.88491 c -5.90193,5.9867 -17.02521,17.24385 -24.71841,25.01589 l -13.98762,14.13099 5.4855,5.50523 c 3.01703,3.02787 5.74459,5.44393 6.06124,5.36901 0.31666,-0.0749 11.30609,-11.04871 24.42096,-24.38621 14.61673,-14.86486 24.26282,-24.30433 24.92426,-24.39037 0.82612,-0.10747 3.8909,2.676 13.07514,11.875 6.59786,6.60845 12.22406,12.01537 12.50268,12.01537 0.27862,0 8.38038,-7.88897 18.00391,-17.53106 9.62353,-9.64208 17.89107,-17.74999 18.37232,-18.01759 0.68333,-0.37996 0.875,-0.29744 0.875,0.37668 0,0.84812 -34.8615,36.25636 -36.67991,37.25516 -0.80206,0.44054 -2.62554,-1.17991 -13.26296,-11.78621 -6.78318,-6.76334 -12.55222,-12.30059 -12.82009,-12.305 -0.26787,-0.005 -11.54065,11.18934 -25.05063,24.875 L 187.62283,488.25 181.06141,481.77471 C 177.45264,478.21329 174.5,475.04314 174.5,474.72993 174.5,474.41673 185.4125,463.06326 198.75,449.5 212.0875,435.93674 223,424.58087 223,424.26472 223,423.57444 212.85406,413.5 212.15889,413.5 c -0.26735,0 -11.34553,11.025 -24.61817,24.5 -13.27265,13.475 -24.35508,24.5 -24.62764,24.5 -0.27255,0 -6.01398,-5.29928 -12.75874,-11.77618 -6.74475,-6.4769 -12.57142,-11.70815 -12.94815,-11.625 -0.37673,0.0831 -11.42227,11.06368 -24.54565,24.40118 -13.12338,13.3375 -24.209405,24.31283 -24.635615,24.38963 -0.44146,0.0796 -3.56919,-2.66403 -7.268385,-6.37567 z m 200.35303,0.43967 c -3.49776,-3.3255 -6.43846,-6.39487 -6.53487,-6.82084 -0.16818,-0.743 22.60342,-24.10046 24.5503,-25.18192 0.68066,-0.3781 0.875,-0.29745 0.875,0.36316 0,0.46706 -5.34375,6.23098 -11.875,12.8087 l -11.875,11.9595 5.5,5.19269 c 3.025,2.85597 5.72922,5.19997 6.00938,5.20888 0.28016,0.009 2.75516,-2.24898 5.5,-5.01753 C 298.72118,474.9573 300,473.9723 300,475.27442 300,476.10133 288.68833,488 287.90221,488 c -0.23818,0 -3.29487,-2.72087 -6.79264,-6.04637 z M 0,449.66838 C 0,449.211 5.3198425,443.4871 11.821872,436.94862 l 11.821871,-11.88815 -2.03418,-2.40524 c -1.118799,-1.32288 -3.628971,-3.97701 -5.57816,-5.89806 l -3.543979,-3.49283 -6.033359,6.11783 C 3.1357182,422.74698 0.32604795,425.5 0.21035352,425.5 0.09465908,425.5 0,425.14222 0,424.70494 0,423.78167 11.873758,411.5 12.766357,411.5 13.579082,411.5 25.5,424.21966 25.5,425.08684 25.5,425.77044 1.0284949,450.5 0.35202479,450.5 0.15841115,450.5 0,450.12577 0,449.66838 Z M 37.104374,413.41168 12.45875,388.84394 6.55804,394.67197 C 3.3126496,397.87738 0.509431,400.5 0.32866515,400.5 0.14789932,400.5 0,400.14359 0,399.70798 0,398.80691 11.363635,387 12.230883,387 c 0.311393,0 1.455583,0.91954 2.542643,2.04343 1.087061,1.12389 12.28284,12.18872 24.87951,24.58852 l 22.903034,22.5451 5.471965,-5.455 c 3.00958,-3.00024 5.47096,-5.68384 5.469735,-5.96353 -0.001,-0.27969 -10.96998,-11.30154 -24.375001,-24.49301 -13.405023,-13.19147 -24.567728,-24.29958 -24.80601,-24.68468 -0.317474,-0.51309 1.283877,-2.42112 5.992785,-7.14051 C 33.843859,364.89814 37.029592,362 37.388951,362 c 0.359359,0 11.633997,10.9125 25.054749,24.25 13.420755,13.3375 24.6069,24.25 24.8581,24.25 0.251195,0 5.404805,-4.96502 11.45246,-11.03337 6.04766,-6.06836 11.6414,-11.37555 12.43054,-11.79377 l 1.4348,-0.76039 13.5652,13.41454 c 7.46086,7.378 18.68294,18.4761 24.93797,24.66246 l 11.37277,11.24792 5.50223,-5.48517 c 3.02623,-3.01684 5.50122,-5.714 5.5,-5.99369 -0.001,-0.2797 -10.96998,-11.30155 -24.375,-24.49302 -13.40503,-13.19147 -24.56773,-24.29958 -24.80601,-24.68468 -0.31747,-0.51309 1.28387,-2.42112 5.99279,-7.1405 3.53431,-3.54219 6.72047,-6.44033 7.08035,-6.44033 0.35988,0 11.79177,11.06964 25.40419,24.59921 l 24.74986,24.59921 12.10678,-12.09921 C 206.30946,392.44464 211.9914,387 212.27727,387 c 0.28588,0 1.40919,0.91954 2.49625,2.04343 1.08707,1.12389 12.28284,12.18872 24.87952,24.58852 l 22.90303,22.5451 5.47197,-5.455 c 3.00958,-3.00024 5.47096,-5.68384 5.46973,-5.96353 -10e-4,-0.27969 -10.96998,-11.30154 -24.375,-24.49301 -13.40502,-13.19147 -24.56773,-24.29958 -24.80601,-24.68468 -0.31747,-0.51309 1.28388,-2.42112 5.99279,-7.14051 3.53431,-3.54218 6.72047,-6.44032 7.08035,-6.44032 0.35988,0 11.78665,11.06457 25.39283,24.58791 l 24.7385,24.58792 6.06016,-5.96292 c 3.42696,-3.37196 6.15509,-5.69451 6.27862,-5.3452 0.12015,0.33974 -0.22886,1.23974 -0.77559,2 C 297.53163,404.02695 288.21199,413 287.52215,413 c -0.33987,0 -11.72371,-11.05447 -25.29744,-24.56548 l -24.6795,-24.56549 -2.3976,2.02729 c -4.31851,3.65152 -8.75103,8.45087 -8.57129,9.28064 0.0955,0.441 11.08618,11.53798 24.42368,24.65995 13.3375,13.12197 24.32273,24.15166 24.41163,24.51042 C 275.61673,425.17509 263.52676,438 262.54132,438 c -0.40324,0 -11.68563,-10.9125 -25.07199,-24.25 -13.38636,-13.3375 -24.65124,-24.25 -25.03307,-24.25 -0.38183,0 -5.97815,5.2875 -12.43626,11.75 -6.45811,6.4625 -12.04662,11.75 -12.41891,11.75 -0.37228,0 -11.78266,-11.05447 -25.35638,-24.56548 l -24.6795,-24.56549 -2.3976,2.02729 c -4.31851,3.65152 -8.75103,8.45087 -8.57129,9.28064 0.0955,0.441 11.08618,11.53798 24.42368,24.65995 13.3375,13.12197 24.32273,24.15166 24.41163,24.51042 C 175.62077,425.19142 163.51681,438 162.51001,438 c -0.42046,0 -10.21347,-9.46457 -21.76224,-21.03239 -11.54878,-11.56781 -22.7382,-22.61365 -24.86539,-24.54632 l -3.86762,-3.51392 -12.01394,11.67131 c -6.607665,6.41922 -12.35577,11.74547 -12.773565,11.8361 -0.45758,0.0993 -10.48524,-9.52012 -25.218905,-24.1921 l -24.459277,-24.35688 -2.399537,2.02891 c -4.335139,3.66554 -8.753046,8.45188 -8.573221,9.28817 0.09553,0.44426 11.086185,11.54073 24.423685,24.65884 13.3375,13.11811 24.32273,24.14514 24.411625,24.5045 0.20999,0.84891 -11.89954,13.65698 -12.89938,13.64349 -0.419235,-0.006 -11.852775,-11.06577 -25.407871,-24.57803 z M 81.061415,381.7747 C 77.45264,378.21329 74.5,375.04314 74.5,374.72993 74.5,374.41672 85.4125,363.06326 98.75,349.5 112.0875,335.93675 123,324.58087 123,324.26472 123,323.57444 112.85406,313.5 112.15889,313.5 c -0.26735,0 -11.34552,11.025 -24.61817,24.5 -13.27265,13.475 -24.365475,24.5 -24.65072,24.5 -0.28525,0 -5.50034,-4.78125 -11.5891,-10.625 -6.088757,-5.84375 -11.691493,-11.17674 -12.450524,-11.8511 L 37.47032,338.7978 18.925905,357.2739 C 8.619314,367.54252 0.27932739,375.4756 0.15150811,375.13229 c -0.12649028,-0.33974 0.22170569,-1.23975 0.77376879,-2 1.8991713,-2.6154 35.8585631,-36.13227 36.5912851,-36.11448 0.403391,0.01 6.238853,5.28096 12.967693,11.7137 7.276,6.95583 12.46864,11.55862 12.81258,11.35719 0.31808,-0.18628 11.19501,-11.1387 24.17096,-24.3387 12.975945,-13.2 23.972785,-24.06284 24.437415,-24.13964 0.52394,-0.0866 3.30695,2.33082 7.32769,6.3651 l 6.4829,6.50473 -10.73078,10.8849 c -5.90192,5.9867 -17.02521,17.24385 -24.718405,25.01589 l -13.987625,14.13099 5.485505,5.50523 c 3.01703,3.02787 5.744585,5.44393 6.06124,5.36901 C 88.14239,385.31129 99.13538,374.3375 112.2546,361 c 13.7591,-13.98803 24.22984,-24.25 24.74333,-24.25 0.48961,0 6.55664,5.49492 13.4823,12.21093 l 12.59209,12.21093 5.13757,-5.21093 c 2.82566,-2.86601 13.66404,-13.87343 24.08527,-24.46093 10.42123,-10.5875 19.25741,-19.44496 19.63594,-19.68324 0.50033,-0.31495 2.44678,1.32138 7.12857,5.99278 3.54218,3.53432 6.44033,6.65685 6.44033,6.93895 0,0.28211 -10.9266,11.60408 -24.28133,25.15993 -13.35472,13.55586 -24.21097,24.92678 -24.125,25.26873 0.086,0.34194 2.59209,2.96187 5.56913,5.82208 l 5.4128,5.20036 7.82865,-7.9748 C 221.16344,352.49405 236.78381,337 237.46514,337 c 0.42754,0 6.23411,5.45335 12.90348,12.11854 l 12.12612,12.11855 18.39331,-18.36855 C 291.00438,332.76585 299.44306,324.5 299.64069,324.5 c 1.62915,0 -2.05246,4.11031 -18.00034,20.09638 C 271.54254,354.71837 262.93453,363 262.51144,363 c -0.42309,0 -6.16749,-5.40433 -12.76535,-12.00963 -6.59785,-6.60529 -12.27257,-11.94904 -12.61048,-11.875 -0.33791,0.074 -11.3517,11.04713 -24.47507,24.38463 -13.12338,13.3375 -24.20941,24.31283 -24.63562,24.38963 -0.44146,0.0795 -3.56919,-2.66403 -7.26838,-6.37567 l -6.49346,-6.51532 7.74904,-7.87432 c 4.26197,-4.33087 15.34028,-15.5383 24.61846,-24.90537 C 215.90876,332.85187 223.5,324.95545 223.5,324.67136 223.5,323.90857 213.17786,314 212.38323,314 c -0.37364,0 -3.81561,3.20625 -7.64881,7.125 C 184.55743,341.75227 163.29883,363 162.83801,363 162.55012,363 156.77302,357.4875 150,350.75 c -6.77302,-6.7375 -12.52506,-12.25361 -12.78229,-12.25802 -0.25724,-0.004 -11.52132,11.18933 -25.0313,24.875 L 87.622835,388.25 81.061415,381.7747 Z M 281.0208,381.7514 c -3.58644,-3.54862 -6.5208,-6.67741 -6.5208,-6.95285 0,-0.58884 23.33988,-24.14354 24.625,-24.85165 0.67896,-0.37412 0.875,-0.29207 0.875,0.36619 0,0.46658 -5.175,6.05357 -11.5,12.41552 -6.325,6.36195 -11.5,11.80715 -11.5,12.10045 0,0.56805 9.6983,10.29652 10.56874,10.60161 0.28359,0.0994 3.11631,-2.3756 6.29494,-5.5 3.72332,-3.6598 5.86484,-5.4368 6.01971,-4.99506 0.14133,0.40313 -2.35187,3.27791 -6.0507,6.97675 l -6.29109,6.29108 -6.5208,-6.45204 z M 0,349.66838 c 0,-0.45738 5.337923,-6.19946 11.862051,-12.76017 l 11.862051,-11.92855 -5.600066,-5.60007 -5.600067,-5.60007 -5.9333195,5.86024 C 3.3273239,322.86289 0.509431,325.5 0.32866515,325.5 0.14789932,325.5 0,325.14359 0,324.70798 0,323.65922 11.436158,312 12.464859,312 13.480703,312 25.5,324.0058 25.5,325.02051 25.5,325.74825 1.0702973,350.5 0.35202479,350.5 0.15841115,350.5 0,350.12577 0,349.66838 Z M 43.116037,319.35952 C 32.877217,309.10725 24.5,300.55725 24.5,300.35952 c 0,-1.62681 4.078016,2.02063 19.852398,17.75631 l 18.160387,18.11583 5.610435,-5.61044 5.610435,-5.61043 L 61.61683,312.85696 C 54.952575,306.17236 49.5,300.54494 49.5,300.35157 49.5,300.15821 49.874608,300 50.33246,300 51.389355,300 75.5,323.93565 75.5,324.98488 75.5,325.98427 63.48329,338 62.483815,338 c -0.413455,0 -9.12896,-8.38822 -19.367778,-18.64048 z m 99.999993,0 c -10.23882,-10.25227 -18.61603,-18.80227 -18.61603,-19 0,-1.62681 4.07801,2.02063 19.8524,17.75631 l 18.16038,18.11583 5.61044,-5.61044 5.61043,-5.61043 -12.24182,-12.31751 c -6.82943,-6.87165 -11.96873,-12.41793 -11.62412,-12.54463 0.33974,-0.12492 1.23974,0.22356 2,0.77439 2.41627,1.75067 23.63229,23.34871 23.63229,24.05781 0,0.95712 -12.02886,13.01915 -12.98335,13.01915 -0.43152,0 -9.1618,-8.38822 -19.40062,-18.64048 z m 100,0 c -10.23882,-10.25227 -18.61603,-18.80227 -18.61603,-19 0,-1.62679 4.07766,2.02027 19.84952,17.75344 l 18.15752,18.11297 5.49648,-5.47944 c 3.02306,-3.01369 5.49648,-5.74626 5.49648,-6.07238 0,-0.32612 -5.27634,-5.70736 -11.7252,-11.9583 -6.44886,-6.25095 -11.8418,-11.66922 -11.98431,-12.04059 -0.14817,-0.38612 0.0693,-0.67522 0.50789,-0.67522 0.83334,0 24.84832,23.28506 25.11325,24.34994 C 275.62196,325.19542 263.51315,338 262.50328,338 c -0.42417,0 -9.14843,-8.38822 -19.38725,-18.64048 z M 81.13218,307.375 C 74.99362,301.33234 73.93478,300 75.271135,300 c 0.44347,0 3.37639,2.51137 6.51759,5.58082 l 5.711275,5.58082 5.711275,-5.58082 c 3.1412,-3.06945 6.07412,-5.58082 6.51759,-5.58082 0.616125,0 0.693915,0.20639 0.329775,0.875 C 99.27474,302.31435 88.206925,313 87.5,313 c -0.35945,0 -3.22497,-2.53125 -6.36782,-5.625 z m 99.4672,-0.54459 c -3.35466,-3.39327 -6.09938,-6.31827 -6.09938,-6.5 0,-1.26647 2.35722,0.43155 7.28872,5.25041 l 5.71128,5.58082 5.71127,-5.58082 c 4.9315,-4.81886 7.28873,-6.51688 7.28873,-5.25041 0,0.7274 -12.25364,12.66959 -13,12.66959 -0.44068,0 -3.54596,-2.77631 -6.90062,-6.16959 z m 100,0 c -3.35465,-3.39327 -6.09938,-6.31827 -6.09938,-6.5 0,-1.26647 2.35723,0.43155 7.28872,5.25041 l 5.71128,5.58082 5.71127,-5.58082 C 298.60459,300.3107 300,299.27498 300,300.54201 300,301.42931 288.4061,313 287.51702,313 c -0.45004,0 -3.56298,-2.77631 -6.91764,-6.16959 z"
         style="fill:#000000;fill-opacity:1" />
    </g>
  </g>
</svg>
